<svg width="42" height="28" viewBox="0 0 42 28" fill="none" xmlns="http://www.w3.org/2000/svg">
<path d="M22.2225 27.3449L41.0105 15.0913C41.2351 14.9473 41.3618 14.7217 41.3618 14.4865V10.7764C41.3618 10.4548 40.9183 10.2772 40.6188 10.474L21.0879 23.2124L1.55694 10.474C1.48903 10.4297 1.40753 10.4022 1.32175 10.3946C1.23597 10.3871 1.14937 10.3998 1.07187 10.4314C0.994362 10.4629 0.92907 10.512 0.883457 10.573C0.837849 10.634 0.813759 10.7045 0.813946 10.7764V14.4865C0.813946 14.7217 0.946415 14.9473 1.16528 15.0913L19.9475 27.3449C20.6214 27.7817 21.5544 27.7817 22.2225 27.3449Z" fill="white"/>
<path d="M22.047 17.8259L40.8349 5.57224C41.0596 5.42825 41.1863 5.20266 41.1863 4.96748V1.25731C41.1863 0.935731 40.7428 0.758142 40.4433 0.95493L20.9123 13.6933L1.3814 0.95493C1.31349 0.910613 1.23199 0.883114 1.14621 0.875579C1.06043 0.868044 0.973834 0.880778 0.896328 0.912321C0.818822 0.943864 0.753527 0.992944 0.707916 1.05395C0.662306 1.11496 0.638219 1.18543 0.638405 1.25731V4.96748C0.638405 5.20266 0.770876 5.42825 0.989742 5.57224L19.7719 17.8259C20.4458 18.2626 21.3789 18.2626 22.047 17.8259Z" fill="white"/>
</svg>
