<svg width="500%" height="300%" viewBox="0 0 626 408" fill="none" xmlns="http://www.w3.org/2000/svg">
<path d="M192.172 2.30704L192.198 2.30729L192.223 2.30501C286.334 -6.29354 394.631 21.0987 479.4 65.6401C521.782 87.9093 558.259 114.453 584.134 142.903C609.999 171.343 625.231 201.643 625.248 231.457C624.202 236.634 623.206 241.708 622.231 246.676C618.616 265.097 615.285 282.068 610.734 297.502C604.954 317.101 597.218 334.176 584.469 348.523C558.979 377.208 513.324 395.128 422.692 400.217C387.176 399.868 349.743 401.643 312.445 403.411C303.182 403.85 293.927 404.289 284.711 404.695C238.374 406.735 193.039 407.941 152.64 404.178C112.235 400.415 76.8242 391.686 50.3031 373.9C23.8149 356.135 6.15284 329.309 1.26748 289.237C1.63193 234.404 5.16684 162.214 30.716 103.956C43.4889 74.8304 61.7553 49.2082 87.8607 30.9743C113.962 12.7429 147.937 1.87239 192.172 2.30704Z" fill="white" fill-opacity="0.74" style="mix-blend-mode:lighten"/>
<path d="M192.172 2.30704L192.198 2.30729L192.223 2.30501C286.334 -6.29354 394.631 21.0987 479.4 65.6401C521.782 87.9093 558.259 114.453 584.134 142.903C609.999 171.343 625.231 201.643 625.248 231.457C624.202 236.634 623.206 241.708 622.231 246.676C618.616 265.097 615.285 282.068 610.734 297.502C604.954 317.101 597.218 334.176 584.469 348.523C558.979 377.208 513.324 395.128 422.692 400.217C387.176 399.868 349.743 401.643 312.445 403.411C303.182 403.85 293.927 404.289 284.711 404.695C238.374 406.735 193.039 407.941 152.64 404.178C112.235 400.415 76.8242 391.686 50.3031 373.9C23.8149 356.135 6.15284 329.309 1.26748 289.237C1.63193 234.404 5.16684 162.214 30.716 103.956C43.4889 74.8304 61.7553 49.2082 87.8607 30.9743C113.962 12.7429 147.937 1.87239 192.172 2.30704Z" stroke="url(#paint0_linear)"/>
<defs>
<linearGradient id="paint0_linear" x1="9.14775" y1="213.099" x2="404.149" y2="324.599" gradientUnits="userSpaceOnUse">
<stop stop-color="#497895"/>
<stop offset="1" stop-color="#009EFD" stop-opacity="0"/>
</linearGradient>
</defs>
</svg>
