<svg width="58" height="41" viewBox="0 0 58 41" fill="none" xmlns="http://www.w3.org/2000/svg">
<path d="M23 28.75L37.9212 20.125L23 11.5V28.75ZM56.235 6.23875C56.6087 7.59 56.8675 9.40125 57.04 11.7012C57.2412 14.0012 57.3275 15.985 57.3275 17.71L57.5 20.125C57.5 26.4212 57.04 31.05 56.235 34.0112C55.5162 36.5988 53.8488 38.2662 51.2612 38.985C49.91 39.3587 47.4375 39.6175 43.6425 39.79C39.905 39.9912 36.4837 40.0775 33.3213 40.0775L28.75 40.25C16.7038 40.25 9.2 39.79 6.23875 38.985C3.65125 38.2662 1.98375 36.5988 1.265 34.0112C0.89125 32.66 0.6325 30.8488 0.46 28.5488C0.25875 26.2488 0.1725 24.265 0.1725 22.54L0 20.125C0 13.8287 0.46 9.2 1.265 6.23875C1.98375 3.65125 3.65125 1.98375 6.23875 1.265C7.59 0.89125 10.0625 0.6325 13.8575 0.46C17.595 0.25875 21.0162 0.1725 24.1787 0.1725L28.75 0C40.7962 0 48.3 0.46 51.2612 1.265C53.8488 1.98375 55.5162 3.65125 56.235 6.23875Z" fill="#E6E6E6"/>
</svg>
