<svg width="397" height="160" viewBox="0 0 397 160" fill="none" xmlns="http://www.w3.org/2000/svg">
<g filter="url(#filter0_d)">
<path d="M266.484 114.284C266.357 114.538 266.23 114.792 266.104 115.046C265.977 115.3 265.761 115.465 265.456 115.541C265.278 115.82 265.139 115.985 265.037 116.036C264.936 116.112 264.834 116.138 264.732 116.112C264.631 116.087 264.517 116.023 264.39 115.922C264.288 115.846 264.136 115.782 263.933 115.731C263.856 115.478 263.729 115.274 263.552 115.122C263.399 114.97 263.26 114.792 263.133 114.589C263.184 114.386 263.222 114.195 263.247 114.018C263.298 113.84 263.361 113.662 263.438 113.484C263.412 113.357 263.336 113.307 263.209 113.332C263.107 113.332 263.031 113.307 262.98 113.256C262.904 113.256 262.815 113.307 262.714 113.408C262.612 113.51 262.536 113.586 262.485 113.637C262.257 113.688 262.092 113.764 261.99 113.865C261.914 113.967 261.851 114.056 261.8 114.132C261.521 114.157 261.305 114.233 261.152 114.36C261 114.462 260.784 114.487 260.505 114.437C260.403 114.487 260.327 114.563 260.276 114.665C260.251 114.741 260.213 114.805 260.162 114.855C259.908 114.957 259.73 115.008 259.629 115.008C259.553 114.982 259.489 114.982 259.438 115.008C259.235 115.084 259.045 115.16 258.867 115.236C258.715 115.338 258.537 115.312 258.334 115.16C258.232 115.287 258.131 115.312 258.029 115.236C257.928 115.186 257.839 115.211 257.763 115.312C257.61 115.287 257.496 115.249 257.42 115.198C257.369 115.147 257.242 115.135 257.039 115.16C256.912 115.186 256.836 115.147 256.811 115.046C256.811 114.944 256.76 114.881 256.658 114.855C256.557 114.805 256.455 114.779 256.354 114.779C256.277 114.779 256.201 114.767 256.125 114.741C256.074 114.589 255.985 114.513 255.858 114.513C255.731 114.513 255.617 114.487 255.516 114.437C255.465 114.284 255.414 114.221 255.363 114.246C255.312 114.246 255.236 114.208 255.135 114.132C254.982 114.03 254.868 113.903 254.792 113.751C254.716 113.573 254.576 113.459 254.373 113.408C254.221 113.154 254.132 112.875 254.106 112.57C254.106 112.266 254.043 111.986 253.916 111.732C254.018 111.656 254.081 111.542 254.106 111.39C254.132 111.237 254.145 111.085 254.145 110.933C254.17 110.78 254.195 110.641 254.221 110.514C254.271 110.387 254.348 110.285 254.449 110.209C254.398 110.031 254.411 109.904 254.487 109.828C254.563 109.727 254.589 109.612 254.563 109.485C254.767 109.384 254.894 109.219 254.944 108.99C255.021 108.736 255.173 108.584 255.401 108.533C255.376 108.355 255.439 108.152 255.592 107.924C255.77 107.67 255.947 107.556 256.125 107.581C256.252 107.429 256.404 107.302 256.582 107.2C256.76 107.073 256.887 106.908 256.963 106.705C257.09 106.705 257.179 106.654 257.229 106.553C257.306 106.451 257.382 106.375 257.458 106.324C257.509 106.273 257.585 106.261 257.687 106.286C257.788 106.286 257.877 106.273 257.953 106.248C258.131 106.146 258.372 106.07 258.677 106.02C258.981 105.969 259.146 105.943 259.172 105.943C259.451 105.994 259.629 106.007 259.705 105.981C259.781 105.956 259.845 105.931 259.896 105.905C260.073 106.032 260.251 106.07 260.429 106.02C260.632 105.943 260.822 105.905 261 105.905C261.381 105.956 261.622 105.969 261.724 105.943C261.851 105.893 261.978 105.88 262.104 105.905C262.181 105.905 262.257 105.931 262.333 105.981C262.409 106.007 262.485 106.02 262.562 106.02C262.739 106.07 262.904 106.07 263.057 106.02C263.234 105.969 263.412 105.969 263.59 106.02C263.564 105.791 263.552 105.512 263.552 105.182C263.552 104.826 263.399 104.61 263.095 104.534C263.069 104.433 263.044 104.356 263.019 104.306C262.993 104.229 262.98 104.141 262.98 104.039C262.93 104.014 262.854 103.963 262.752 103.887C262.65 103.811 262.536 103.734 262.409 103.658C262.308 103.582 262.219 103.506 262.143 103.43C262.066 103.354 262.028 103.29 262.028 103.239C261.749 103.188 261.482 103.201 261.229 103.277C261 103.328 260.746 103.341 260.467 103.315C260.289 103.493 260.048 103.607 259.743 103.658C259.464 103.709 259.223 103.798 259.02 103.925C258.816 104.153 258.588 104.356 258.334 104.534C258.105 104.712 257.877 104.826 257.648 104.877C257.42 104.928 257.204 104.89 257.001 104.763C256.798 104.636 256.607 104.395 256.43 104.039C256.379 103.912 256.315 103.785 256.239 103.658C256.188 103.506 256.163 103.366 256.163 103.239C256.29 103.036 256.341 102.909 256.315 102.858C256.315 102.808 256.328 102.757 256.354 102.706C256.607 102.503 256.76 102.363 256.811 102.287C256.861 102.211 256.925 102.135 257.001 102.059C257.077 101.982 257.153 101.919 257.229 101.868C257.331 101.817 257.407 101.741 257.458 101.64C257.61 101.64 257.864 101.563 258.22 101.411C258.601 101.259 258.893 101.157 259.096 101.106C259.223 101.081 259.4 101.056 259.629 101.03C259.883 101.005 260.061 100.941 260.162 100.84C260.314 100.891 260.416 100.941 260.467 100.992C260.518 101.043 260.645 101.03 260.848 100.954C260.924 100.903 261 100.865 261.076 100.84C261.152 100.789 261.241 100.751 261.343 100.726C261.495 100.7 261.609 100.713 261.686 100.764C261.787 100.789 261.914 100.726 262.066 100.573C262.244 100.522 262.435 100.535 262.638 100.611C262.841 100.662 263.044 100.662 263.247 100.611C263.298 100.738 263.374 100.802 263.476 100.802C263.603 100.802 263.641 100.891 263.59 101.068C263.717 101.094 263.818 101.157 263.895 101.259C263.971 101.335 264.072 101.398 264.199 101.449C264.199 101.551 264.225 101.627 264.275 101.678C264.326 101.729 264.39 101.767 264.466 101.792C264.542 101.817 264.593 101.855 264.618 101.906C264.669 101.957 264.669 102.033 264.618 102.135C264.745 102.287 264.872 102.439 264.999 102.592C265.151 102.744 265.329 102.884 265.532 103.011C265.456 103.087 265.456 103.163 265.532 103.239C265.608 103.315 265.646 103.404 265.646 103.506C265.697 103.582 265.723 103.696 265.723 103.849C265.723 103.976 265.761 104.052 265.837 104.077C265.837 104.153 265.837 104.28 265.837 104.458C265.862 104.61 265.875 104.775 265.875 104.953C265.9 105.105 265.926 105.258 265.951 105.41C265.977 105.562 266.002 105.677 266.027 105.753C266.18 106.159 266.256 106.451 266.256 106.629C266.23 106.705 266.192 106.781 266.142 106.857C266.116 106.908 266.078 106.972 266.027 107.048C266.002 107.175 265.989 107.353 265.989 107.581C265.989 107.81 265.989 108.038 265.989 108.267C266.015 108.495 266.027 108.724 266.027 108.952C266.027 109.155 266.002 109.308 265.951 109.409C266.104 109.841 266.167 110.298 266.142 110.78C266.142 111.263 266.205 111.72 266.332 112.151C266.256 112.202 266.23 112.291 266.256 112.418C266.281 112.545 266.243 112.634 266.142 112.685C266.142 112.786 266.167 112.862 266.218 112.913C266.294 112.938 266.332 113.002 266.332 113.104C266.205 113.104 266.154 113.167 266.18 113.294C266.205 113.421 266.192 113.51 266.142 113.561C266.167 113.688 266.218 113.814 266.294 113.941C266.37 114.043 266.434 114.157 266.484 114.284ZM263.552 109.333C263.349 109.13 263.146 108.927 262.942 108.724C262.739 108.521 262.511 108.355 262.257 108.229C262.104 108.305 261.952 108.317 261.8 108.267C261.647 108.19 261.495 108.152 261.343 108.152C261.216 108.152 261.089 108.19 260.962 108.267C260.835 108.317 260.708 108.355 260.581 108.381C260.251 108.33 260.035 108.343 259.934 108.419C259.857 108.47 259.781 108.457 259.705 108.381C259.654 108.482 259.578 108.559 259.477 108.609C259.4 108.66 259.337 108.724 259.286 108.8H258.753C258.677 108.851 258.639 108.927 258.639 109.028C258.639 109.13 258.575 109.206 258.448 109.257C258.271 109.308 258.131 109.384 258.029 109.485C257.928 109.587 257.801 109.65 257.648 109.676C257.547 109.93 257.433 110.171 257.306 110.399C257.179 110.628 257.052 110.856 256.925 111.085C256.976 111.288 256.976 111.44 256.925 111.542C256.874 111.644 256.798 111.783 256.696 111.961C256.925 112.24 257.179 112.443 257.458 112.57C257.763 112.672 257.979 112.735 258.105 112.761C258.207 112.761 258.296 112.735 258.372 112.685C258.448 112.634 258.537 112.608 258.639 112.608C258.842 112.659 258.969 112.672 259.02 112.646C259.096 112.596 259.159 112.558 259.21 112.532C259.413 112.481 259.604 112.456 259.781 112.456C259.959 112.456 260.149 112.456 260.353 112.456C260.53 112.354 260.632 112.266 260.657 112.189C260.708 112.088 260.771 112.012 260.848 111.961H261.305C261.254 111.834 261.279 111.771 261.381 111.771C261.508 111.745 261.622 111.732 261.724 111.732C261.851 111.479 262.041 111.301 262.295 111.199C262.574 111.098 262.828 110.983 263.057 110.856C263.234 110.704 263.349 110.615 263.399 110.59C263.45 110.539 263.501 110.501 263.552 110.476C263.552 110.272 263.552 110.082 263.552 109.904C263.577 109.727 263.577 109.536 263.552 109.333ZM280.614 109.333C280.665 109.866 280.69 110.438 280.69 111.047C280.716 111.656 280.589 112.202 280.31 112.685C280.208 112.989 280.145 113.23 280.119 113.408C280.094 113.561 280.005 113.662 279.853 113.713C279.878 113.941 279.84 114.094 279.738 114.17C279.637 114.246 279.535 114.36 279.434 114.513C279.281 114.513 279.116 114.538 278.938 114.589C278.761 114.64 278.608 114.69 278.481 114.741C278.38 114.944 278.304 115.021 278.253 114.97C278.202 114.919 278.126 114.919 278.024 114.97C277.771 115.147 277.529 115.236 277.301 115.236C277.098 115.236 276.933 115.236 276.806 115.236C276.704 115.312 276.603 115.376 276.501 115.427C276.425 115.503 276.374 115.617 276.349 115.77C276.222 115.82 276.146 115.795 276.12 115.693C276.095 115.617 276.031 115.566 275.93 115.541C275.701 115.643 275.536 115.643 275.435 115.541C275.358 115.439 275.231 115.389 275.054 115.389C274.952 115.389 274.838 115.414 274.711 115.465C274.609 115.541 274.495 115.604 274.368 115.655C274.267 115.706 274.152 115.731 274.025 115.731C273.924 115.757 273.822 115.719 273.721 115.617C273.594 115.617 273.505 115.655 273.454 115.731C273.429 115.808 273.353 115.846 273.226 115.846C272.946 115.82 272.68 115.782 272.426 115.731C272.172 115.706 271.905 115.719 271.626 115.77C271.575 115.643 271.461 115.566 271.283 115.541C271.131 115.541 271.004 115.541 270.902 115.541C270.877 115.439 270.813 115.389 270.712 115.389C270.636 115.389 270.598 115.338 270.598 115.236C270.496 115.287 270.344 115.249 270.141 115.122C269.963 115.021 269.823 114.944 269.722 114.894C269.62 114.767 269.48 114.614 269.303 114.437C269.125 114.259 269.023 114.145 268.998 114.094C268.947 114.018 268.922 113.929 268.922 113.827C268.947 113.7 268.896 113.611 268.77 113.561C268.77 113.383 268.757 113.269 268.731 113.218C268.731 113.142 268.719 113.091 268.693 113.065C268.668 113.015 268.63 112.977 268.579 112.951C268.528 112.9 268.465 112.812 268.389 112.685C268.439 112.558 268.427 112.431 268.351 112.304C268.3 112.151 268.312 112.012 268.389 111.885C268.312 111.809 268.262 111.682 268.236 111.504C268.236 111.301 268.236 111.098 268.236 110.895C268.262 110.666 268.3 110.45 268.351 110.247C268.401 110.044 268.439 109.892 268.465 109.79C268.693 109.663 268.896 109.511 269.074 109.333C269.252 109.13 269.468 108.965 269.722 108.838C269.95 108.939 270.204 109.028 270.483 109.104C270.788 109.155 271.017 109.282 271.169 109.485C271.093 109.663 271.08 109.815 271.131 109.942C271.207 110.044 271.194 110.146 271.093 110.247C271.093 110.501 271.004 110.641 270.826 110.666C270.801 110.793 270.801 110.92 270.826 111.047C270.877 111.174 270.852 111.288 270.75 111.39C270.852 111.593 270.877 111.72 270.826 111.771C270.801 111.796 270.801 111.834 270.826 111.885C270.852 112.012 270.915 112.126 271.017 112.228C271.118 112.304 271.169 112.431 271.169 112.608C271.397 112.812 271.651 112.951 271.931 113.027C272.235 113.104 272.515 113.192 272.769 113.294C272.845 113.269 272.934 113.256 273.035 113.256C273.162 113.256 273.226 113.192 273.226 113.065C273.353 113.116 273.505 113.142 273.683 113.142C273.86 113.116 274 113.04 274.102 112.913C274.254 112.913 274.419 112.926 274.597 112.951C274.8 112.977 274.99 112.989 275.168 112.989C275.371 112.989 275.549 112.964 275.701 112.913C275.879 112.862 276.006 112.748 276.082 112.57C276.412 112.57 276.653 112.52 276.806 112.418C276.983 112.316 277.123 112.202 277.225 112.075C277.326 111.923 277.415 111.783 277.491 111.656C277.593 111.504 277.732 111.39 277.91 111.313C277.91 111.161 277.936 111.047 277.986 110.971C278.062 110.869 278.075 110.717 278.024 110.514C277.999 110.361 277.91 110.272 277.758 110.247C277.605 110.222 277.479 110.158 277.377 110.057C277.326 109.777 277.199 109.587 276.996 109.485C276.793 109.384 276.603 109.231 276.425 109.028C276.12 109.079 275.904 109.066 275.777 108.99C275.65 108.914 275.46 108.812 275.206 108.686C275.104 108.635 275.003 108.597 274.901 108.571C274.8 108.546 274.698 108.508 274.597 108.457C274.47 108.432 274.381 108.444 274.33 108.495C274.279 108.546 274.203 108.609 274.102 108.686C274.051 108.559 273.975 108.482 273.873 108.457C273.771 108.406 273.67 108.355 273.568 108.305C273.289 108.305 272.984 108.305 272.654 108.305C272.324 108.279 272.045 108.165 271.816 107.962C271.715 107.937 271.613 107.924 271.512 107.924C271.436 107.924 271.347 107.911 271.245 107.886C271.169 107.632 271.004 107.505 270.75 107.505C270.699 107.403 270.648 107.314 270.598 107.238C270.572 107.162 270.496 107.137 270.369 107.162C270.344 107.035 270.306 106.908 270.255 106.781C270.204 106.654 270.103 106.578 269.95 106.553C269.925 106.324 269.861 106.108 269.76 105.905C269.658 105.702 269.595 105.486 269.569 105.258C269.62 104.953 269.633 104.775 269.607 104.725C269.582 104.648 269.569 104.585 269.569 104.534C269.595 104.204 269.671 103.887 269.798 103.582C269.925 103.277 270.001 102.96 270.026 102.63C270.179 102.579 270.28 102.478 270.331 102.325C270.382 102.173 270.42 102.033 270.445 101.906C270.699 101.83 270.826 101.652 270.826 101.373C271.029 101.398 271.169 101.36 271.245 101.259C271.321 101.157 271.423 101.056 271.55 100.954C271.677 101.005 271.778 100.992 271.854 100.916C271.931 100.84 272.02 100.776 272.121 100.726C272.248 100.675 272.362 100.662 272.464 100.688C272.565 100.713 272.667 100.7 272.769 100.649C272.896 100.599 273.01 100.548 273.111 100.497C273.213 100.421 273.327 100.37 273.454 100.345C273.454 100.345 273.518 100.345 273.645 100.345C273.797 100.319 273.962 100.307 274.14 100.307C274.317 100.307 274.482 100.307 274.635 100.307C274.787 100.281 274.876 100.269 274.901 100.269C275.104 100.294 275.295 100.332 275.473 100.383C275.676 100.434 275.879 100.446 276.082 100.421C276.234 100.421 276.387 100.383 276.539 100.307C276.691 100.23 276.856 100.218 277.034 100.269C277.136 100.37 277.225 100.497 277.301 100.649C277.453 100.649 277.567 100.675 277.644 100.726C277.72 100.776 277.783 100.84 277.834 100.916C277.91 100.992 277.974 101.068 278.024 101.145C278.101 101.195 278.202 101.221 278.329 101.221C278.329 101.322 278.367 101.424 278.443 101.525C278.52 101.602 278.583 101.678 278.634 101.754C278.786 101.906 278.862 102.109 278.862 102.363C278.888 102.617 278.913 102.846 278.938 103.049C278.862 103.125 278.773 103.201 278.672 103.277C278.596 103.328 278.532 103.404 278.481 103.506C278.431 103.582 278.38 103.684 278.329 103.811C278.304 103.912 278.228 103.95 278.101 103.925C277.923 104.179 277.809 104.28 277.758 104.229C277.732 104.153 277.694 104.09 277.644 104.039C277.618 103.988 277.567 103.963 277.491 103.963C277.415 103.938 277.288 104.001 277.11 104.153C276.933 103.95 276.755 103.798 276.577 103.696C276.425 103.569 276.323 103.354 276.272 103.049C276.171 102.947 276.019 102.896 275.815 102.896C275.638 102.896 275.498 102.833 275.396 102.706C275.27 102.731 275.079 102.782 274.825 102.858C274.571 102.935 274.381 102.909 274.254 102.782C274.127 102.757 274.038 102.795 273.987 102.896C273.962 102.998 273.848 103.023 273.645 102.973C273.568 103.023 273.518 103.087 273.492 103.163C273.467 103.239 273.429 103.303 273.378 103.354C273.149 103.379 272.946 103.531 272.769 103.811C272.591 104.064 272.527 104.306 272.578 104.534C272.375 104.89 272.299 105.105 272.35 105.182C272.426 105.232 272.502 105.309 272.578 105.41C272.781 105.664 272.946 105.778 273.073 105.753C273.2 105.728 273.391 105.778 273.645 105.905C273.924 105.88 274.127 105.905 274.254 105.981C274.381 106.032 274.495 106.083 274.597 106.134C274.698 106.083 274.787 106.045 274.863 106.02C274.965 105.994 275.054 105.956 275.13 105.905C275.384 106.032 275.638 106.134 275.892 106.21C276.146 106.261 276.399 106.35 276.653 106.477C276.78 106.527 276.882 106.578 276.958 106.629C277.06 106.68 277.174 106.73 277.301 106.781C277.529 106.857 277.682 106.908 277.758 106.934C277.859 106.959 277.91 107.035 277.91 107.162C278.164 107.111 278.354 107.149 278.481 107.276C278.608 107.403 278.773 107.479 278.977 107.505C279.104 107.632 279.269 107.822 279.472 108.076C279.675 108.33 279.853 108.482 280.005 108.533C280.03 108.736 280.106 108.889 280.233 108.99C280.36 109.066 280.487 109.181 280.614 109.333ZM294.249 109.333C294.3 109.866 294.325 110.438 294.325 111.047C294.351 111.656 294.224 112.202 293.944 112.685C293.843 112.989 293.779 113.23 293.754 113.408C293.729 113.561 293.64 113.662 293.487 113.713C293.513 113.941 293.475 114.094 293.373 114.17C293.271 114.246 293.17 114.36 293.068 114.513C292.916 114.513 292.751 114.538 292.573 114.589C292.396 114.64 292.243 114.69 292.116 114.741C292.015 114.944 291.938 115.021 291.888 114.97C291.837 114.919 291.761 114.919 291.659 114.97C291.405 115.147 291.164 115.236 290.936 115.236C290.732 115.236 290.567 115.236 290.44 115.236C290.339 115.312 290.237 115.376 290.136 115.427C290.06 115.503 290.009 115.617 289.983 115.77C289.856 115.82 289.78 115.795 289.755 115.693C289.729 115.617 289.666 115.566 289.564 115.541C289.336 115.643 289.171 115.643 289.069 115.541C288.993 115.439 288.866 115.389 288.688 115.389C288.587 115.389 288.473 115.414 288.346 115.465C288.244 115.541 288.13 115.604 288.003 115.655C287.901 115.706 287.787 115.731 287.66 115.731C287.559 115.757 287.457 115.719 287.355 115.617C287.229 115.617 287.14 115.655 287.089 115.731C287.063 115.808 286.987 115.846 286.86 115.846C286.581 115.82 286.314 115.782 286.061 115.731C285.807 115.706 285.54 115.719 285.261 115.77C285.21 115.643 285.096 115.566 284.918 115.541C284.766 115.541 284.639 115.541 284.537 115.541C284.512 115.439 284.448 115.389 284.347 115.389C284.271 115.389 284.232 115.338 284.232 115.236C284.131 115.287 283.979 115.249 283.775 115.122C283.598 115.021 283.458 114.944 283.356 114.894C283.255 114.767 283.115 114.614 282.938 114.437C282.76 114.259 282.658 114.145 282.633 114.094C282.582 114.018 282.557 113.929 282.557 113.827C282.582 113.7 282.531 113.611 282.404 113.561C282.404 113.383 282.392 113.269 282.366 113.218C282.366 113.142 282.354 113.091 282.328 113.065C282.303 113.015 282.265 112.977 282.214 112.951C282.163 112.9 282.1 112.812 282.023 112.685C282.074 112.558 282.062 112.431 281.985 112.304C281.935 112.151 281.947 112.012 282.023 111.885C281.947 111.809 281.896 111.682 281.871 111.504C281.871 111.301 281.871 111.098 281.871 110.895C281.896 110.666 281.935 110.45 281.985 110.247C282.036 110.044 282.074 109.892 282.1 109.79C282.328 109.663 282.531 109.511 282.709 109.333C282.887 109.13 283.103 108.965 283.356 108.838C283.585 108.939 283.839 109.028 284.118 109.104C284.423 109.155 284.651 109.282 284.804 109.485C284.728 109.663 284.715 109.815 284.766 109.942C284.842 110.044 284.829 110.146 284.728 110.247C284.728 110.501 284.639 110.641 284.461 110.666C284.436 110.793 284.436 110.92 284.461 111.047C284.512 111.174 284.486 111.288 284.385 111.39C284.486 111.593 284.512 111.72 284.461 111.771C284.436 111.796 284.436 111.834 284.461 111.885C284.486 112.012 284.55 112.126 284.651 112.228C284.753 112.304 284.804 112.431 284.804 112.608C285.032 112.812 285.286 112.951 285.565 113.027C285.87 113.104 286.149 113.192 286.403 113.294C286.479 113.269 286.568 113.256 286.67 113.256C286.797 113.256 286.86 113.192 286.86 113.065C286.987 113.116 287.14 113.142 287.317 113.142C287.495 113.116 287.635 113.04 287.736 112.913C287.889 112.913 288.054 112.926 288.231 112.951C288.435 112.977 288.625 112.989 288.803 112.989C289.006 112.989 289.184 112.964 289.336 112.913C289.514 112.862 289.641 112.748 289.717 112.57C290.047 112.57 290.288 112.52 290.44 112.418C290.618 112.316 290.758 112.202 290.859 112.075C290.961 111.923 291.05 111.783 291.126 111.656C291.228 111.504 291.367 111.39 291.545 111.313C291.545 111.161 291.57 111.047 291.621 110.971C291.697 110.869 291.71 110.717 291.659 110.514C291.634 110.361 291.545 110.272 291.393 110.247C291.24 110.222 291.113 110.158 291.012 110.057C290.961 109.777 290.834 109.587 290.631 109.485C290.428 109.384 290.237 109.231 290.06 109.028C289.755 109.079 289.539 109.066 289.412 108.99C289.285 108.914 289.095 108.812 288.841 108.686C288.739 108.635 288.638 108.597 288.536 108.571C288.435 108.546 288.333 108.508 288.231 108.457C288.104 108.432 288.016 108.444 287.965 108.495C287.914 108.546 287.838 108.609 287.736 108.686C287.686 108.559 287.609 108.482 287.508 108.457C287.406 108.406 287.305 108.355 287.203 108.305C286.924 108.305 286.619 108.305 286.289 108.305C285.959 108.279 285.68 108.165 285.451 107.962C285.35 107.937 285.248 107.924 285.146 107.924C285.07 107.924 284.981 107.911 284.88 107.886C284.804 107.632 284.639 107.505 284.385 107.505C284.334 107.403 284.283 107.314 284.232 107.238C284.207 107.162 284.131 107.137 284.004 107.162C283.979 107.035 283.94 106.908 283.89 106.781C283.839 106.654 283.737 106.578 283.585 106.553C283.56 106.324 283.496 106.108 283.395 105.905C283.293 105.702 283.229 105.486 283.204 105.258C283.255 104.953 283.268 104.775 283.242 104.725C283.217 104.648 283.204 104.585 283.204 104.534C283.229 104.204 283.306 103.887 283.433 103.582C283.56 103.277 283.636 102.96 283.661 102.63C283.813 102.579 283.915 102.478 283.966 102.325C284.017 102.173 284.055 102.033 284.08 101.906C284.334 101.83 284.461 101.652 284.461 101.373C284.664 101.398 284.804 101.36 284.88 101.259C284.956 101.157 285.058 101.056 285.185 100.954C285.312 101.005 285.413 100.992 285.489 100.916C285.565 100.84 285.654 100.776 285.756 100.726C285.883 100.675 285.997 100.662 286.099 100.688C286.2 100.713 286.302 100.7 286.403 100.649C286.53 100.599 286.645 100.548 286.746 100.497C286.848 100.421 286.962 100.37 287.089 100.345C287.089 100.345 287.152 100.345 287.279 100.345C287.432 100.319 287.597 100.307 287.774 100.307C287.952 100.307 288.117 100.307 288.27 100.307C288.422 100.281 288.511 100.269 288.536 100.269C288.739 100.294 288.93 100.332 289.107 100.383C289.311 100.434 289.514 100.446 289.717 100.421C289.869 100.421 290.021 100.383 290.174 100.307C290.326 100.23 290.491 100.218 290.669 100.269C290.771 100.37 290.859 100.497 290.936 100.649C291.088 100.649 291.202 100.675 291.278 100.726C291.354 100.776 291.418 100.84 291.469 100.916C291.545 100.992 291.608 101.068 291.659 101.145C291.735 101.195 291.837 101.221 291.964 101.221C291.964 101.322 292.002 101.424 292.078 101.525C292.154 101.602 292.218 101.678 292.269 101.754C292.421 101.906 292.497 102.109 292.497 102.363C292.522 102.617 292.548 102.846 292.573 103.049C292.497 103.125 292.408 103.201 292.307 103.277C292.23 103.328 292.167 103.404 292.116 103.506C292.065 103.582 292.015 103.684 291.964 103.811C291.938 103.912 291.862 103.95 291.735 103.925C291.558 104.179 291.443 104.28 291.393 104.229C291.367 104.153 291.329 104.09 291.278 104.039C291.253 103.988 291.202 103.963 291.126 103.963C291.05 103.938 290.923 104.001 290.745 104.153C290.567 103.95 290.39 103.798 290.212 103.696C290.06 103.569 289.958 103.354 289.907 103.049C289.806 102.947 289.653 102.896 289.45 102.896C289.272 102.896 289.133 102.833 289.031 102.706C288.904 102.731 288.714 102.782 288.46 102.858C288.206 102.935 288.016 102.909 287.889 102.782C287.762 102.757 287.673 102.795 287.622 102.896C287.597 102.998 287.482 103.023 287.279 102.973C287.203 103.023 287.152 103.087 287.127 103.163C287.102 103.239 287.063 103.303 287.013 103.354C286.784 103.379 286.581 103.531 286.403 103.811C286.226 104.064 286.162 104.306 286.213 104.534C286.01 104.89 285.934 105.105 285.984 105.182C286.061 105.232 286.137 105.309 286.213 105.41C286.416 105.664 286.581 105.778 286.708 105.753C286.835 105.728 287.025 105.778 287.279 105.905C287.559 105.88 287.762 105.905 287.889 105.981C288.016 106.032 288.13 106.083 288.231 106.134C288.333 106.083 288.422 106.045 288.498 106.02C288.6 105.994 288.688 105.956 288.765 105.905C289.019 106.032 289.272 106.134 289.526 106.21C289.78 106.261 290.034 106.35 290.288 106.477C290.415 106.527 290.517 106.578 290.593 106.629C290.694 106.68 290.809 106.73 290.936 106.781C291.164 106.857 291.316 106.908 291.393 106.934C291.494 106.959 291.545 107.035 291.545 107.162C291.799 107.111 291.989 107.149 292.116 107.276C292.243 107.403 292.408 107.479 292.611 107.505C292.738 107.632 292.903 107.822 293.106 108.076C293.31 108.33 293.487 108.482 293.64 108.533C293.665 108.736 293.741 108.889 293.868 108.99C293.995 109.066 294.122 109.181 294.249 109.333ZM299.886 98.1357C299.733 98.415 299.657 98.6309 299.657 98.7832C299.683 98.9102 299.746 99.0244 299.848 99.126C299.822 99.2275 299.797 99.3291 299.771 99.4307C299.746 99.5068 299.721 99.5957 299.695 99.6973C299.568 99.6465 299.391 99.6846 299.162 99.8115C298.934 99.9131 298.807 100.027 298.781 100.154C298.654 100.129 298.515 100.116 298.362 100.116C298.21 100.116 298.07 100.142 297.943 100.192C297.816 100.142 297.715 100.078 297.639 100.002C297.588 99.9004 297.474 99.8623 297.296 99.8877C297.194 99.7607 297.105 99.6338 297.029 99.5068C296.953 99.3799 296.864 99.2529 296.763 99.126C296.813 98.7959 296.813 98.6055 296.763 98.5547C296.712 98.5039 296.661 98.4531 296.61 98.4023C296.56 98.3516 296.509 98.2881 296.458 98.2119C296.433 98.1357 296.445 98.0342 296.496 97.9072C296.75 97.8057 296.915 97.7422 296.991 97.7168C297.067 97.666 297.131 97.6279 297.182 97.6025C297.232 97.5518 297.283 97.501 297.334 97.4502C297.385 97.3994 297.461 97.3613 297.562 97.3359C297.816 97.209 297.981 97.1709 298.058 97.2217C298.134 97.2471 298.197 97.2598 298.248 97.2598C298.375 97.2598 298.464 97.2471 298.515 97.2217C298.565 97.1963 298.654 97.209 298.781 97.2598C298.857 97.3105 298.908 97.3232 298.934 97.2979C298.959 97.2725 298.984 97.2471 299.01 97.2217C299.061 97.1709 299.099 97.1455 299.124 97.1455C299.175 97.1201 299.238 97.1455 299.314 97.2217C299.365 97.2725 299.391 97.3613 299.391 97.4883C299.416 97.6152 299.429 97.7295 299.429 97.8311C299.454 97.958 299.53 98.0088 299.657 97.9834C299.784 97.958 299.86 98.0088 299.886 98.1357ZM302.59 114.855C302.514 115.033 302.387 115.211 302.209 115.389C301.904 115.49 301.714 115.579 301.638 115.655C301.562 115.731 301.498 115.782 301.447 115.808C301.016 115.833 300.584 115.833 300.152 115.808C299.746 115.808 299.416 115.744 299.162 115.617C298.908 115.363 298.705 115.198 298.553 115.122C298.426 115.071 298.312 114.982 298.21 114.855C297.981 114.5 297.816 114.246 297.715 114.094C297.639 113.941 297.588 113.764 297.562 113.561C297.283 112.824 297.017 112.228 296.763 111.771C296.864 111.542 296.915 111.313 296.915 111.085C296.915 110.831 296.852 110.59 296.725 110.361C296.801 110.311 296.852 110.247 296.877 110.171C296.928 110.095 296.979 110.031 297.029 109.98C296.953 109.854 296.864 109.663 296.763 109.409C296.661 109.13 296.712 108.939 296.915 108.838C296.864 108.711 296.839 108.533 296.839 108.305C296.864 108.051 296.902 107.86 296.953 107.733C296.953 107.606 296.928 107.518 296.877 107.467C296.826 107.391 296.775 107.302 296.725 107.2C296.826 106.946 296.915 106.769 296.991 106.667C296.915 106.54 296.877 106.375 296.877 106.172C296.877 105.969 296.813 105.829 296.687 105.753C296.864 105.474 296.928 105.144 296.877 104.763C296.826 104.382 296.877 104.064 297.029 103.811C297.08 103.709 297.169 103.646 297.296 103.62C297.448 103.595 297.512 103.48 297.486 103.277C297.74 103.252 297.969 103.303 298.172 103.43C298.4 103.557 298.654 103.62 298.934 103.62C298.857 103.772 298.883 103.849 299.01 103.849C299.137 103.849 299.238 103.874 299.314 103.925C299.391 104.001 299.441 104.115 299.467 104.268C299.518 104.395 299.581 104.509 299.657 104.61C299.606 104.737 299.556 104.852 299.505 104.953C299.454 105.055 299.429 105.169 299.429 105.296C299.479 105.601 299.492 105.791 299.467 105.867C299.441 105.918 299.416 105.981 299.391 106.058C299.365 106.388 299.378 106.718 299.429 107.048C299.479 107.378 299.505 107.721 299.505 108.076C299.505 108.152 299.492 108.229 299.467 108.305C299.441 108.381 299.429 108.457 299.429 108.533C299.429 108.635 299.441 108.724 299.467 108.8C299.492 108.876 299.492 108.965 299.467 109.066C299.467 109.244 299.429 109.422 299.353 109.6C299.302 109.777 299.391 109.93 299.619 110.057C299.518 110.107 299.479 110.196 299.505 110.323C299.556 110.45 299.581 110.552 299.581 110.628C299.606 110.831 299.606 111.072 299.581 111.352C299.581 111.605 299.683 111.796 299.886 111.923C299.81 112.101 299.797 112.24 299.848 112.342C299.898 112.418 299.924 112.532 299.924 112.685C300.076 112.735 300.229 112.773 300.381 112.799C300.533 112.799 300.686 112.824 300.838 112.875C301.016 112.926 301.143 113.002 301.219 113.104C301.295 113.18 301.435 113.205 301.638 113.18C301.739 113.332 301.841 113.459 301.942 113.561C302.044 113.637 302.196 113.662 302.399 113.637C302.349 113.764 302.349 113.865 302.399 113.941C302.476 113.992 302.526 114.068 302.552 114.17C302.552 114.297 302.514 114.437 302.438 114.589C302.361 114.716 302.412 114.805 302.59 114.855ZM315.387 109.333C315.438 109.866 315.463 110.438 315.463 111.047C315.488 111.656 315.361 112.202 315.082 112.685C314.98 112.989 314.917 113.23 314.892 113.408C314.866 113.561 314.777 113.662 314.625 113.713C314.65 113.941 314.612 114.094 314.511 114.17C314.409 114.246 314.308 114.36 314.206 114.513C314.054 114.513 313.889 114.538 313.711 114.589C313.533 114.64 313.381 114.69 313.254 114.741C313.152 114.944 313.076 115.021 313.025 114.97C312.975 114.919 312.898 114.919 312.797 114.97C312.543 115.147 312.302 115.236 312.073 115.236C311.87 115.236 311.705 115.236 311.578 115.236C311.477 115.312 311.375 115.376 311.273 115.427C311.197 115.503 311.146 115.617 311.121 115.77C310.994 115.82 310.918 115.795 310.893 115.693C310.867 115.617 310.804 115.566 310.702 115.541C310.474 115.643 310.309 115.643 310.207 115.541C310.131 115.439 310.004 115.389 309.826 115.389C309.725 115.389 309.61 115.414 309.483 115.465C309.382 115.541 309.268 115.604 309.141 115.655C309.039 115.706 308.925 115.731 308.798 115.731C308.696 115.757 308.595 115.719 308.493 115.617C308.366 115.617 308.277 115.655 308.227 115.731C308.201 115.808 308.125 115.846 307.998 115.846C307.719 115.82 307.452 115.782 307.198 115.731C306.944 115.706 306.678 115.719 306.398 115.77C306.348 115.643 306.233 115.566 306.056 115.541C305.903 115.541 305.776 115.541 305.675 115.541C305.649 115.439 305.586 115.389 305.484 115.389C305.408 115.389 305.37 115.338 305.37 115.236C305.269 115.287 305.116 115.249 304.913 115.122C304.735 115.021 304.596 114.944 304.494 114.894C304.393 114.767 304.253 114.614 304.075 114.437C303.897 114.259 303.796 114.145 303.771 114.094C303.72 114.018 303.694 113.929 303.694 113.827C303.72 113.7 303.669 113.611 303.542 113.561C303.542 113.383 303.529 113.269 303.504 113.218C303.504 113.142 303.491 113.091 303.466 113.065C303.44 113.015 303.402 112.977 303.352 112.951C303.301 112.9 303.237 112.812 303.161 112.685C303.212 112.558 303.199 112.431 303.123 112.304C303.072 112.151 303.085 112.012 303.161 111.885C303.085 111.809 303.034 111.682 303.009 111.504C303.009 111.301 303.009 111.098 303.009 110.895C303.034 110.666 303.072 110.45 303.123 110.247C303.174 110.044 303.212 109.892 303.237 109.79C303.466 109.663 303.669 109.511 303.847 109.333C304.024 109.13 304.24 108.965 304.494 108.838C304.723 108.939 304.977 109.028 305.256 109.104C305.561 109.155 305.789 109.282 305.941 109.485C305.865 109.663 305.853 109.815 305.903 109.942C305.979 110.044 305.967 110.146 305.865 110.247C305.865 110.501 305.776 110.641 305.599 110.666C305.573 110.793 305.573 110.92 305.599 111.047C305.649 111.174 305.624 111.288 305.522 111.39C305.624 111.593 305.649 111.72 305.599 111.771C305.573 111.796 305.573 111.834 305.599 111.885C305.624 112.012 305.688 112.126 305.789 112.228C305.891 112.304 305.941 112.431 305.941 112.608C306.17 112.812 306.424 112.951 306.703 113.027C307.008 113.104 307.287 113.192 307.541 113.294C307.617 113.269 307.706 113.256 307.808 113.256C307.935 113.256 307.998 113.192 307.998 113.065C308.125 113.116 308.277 113.142 308.455 113.142C308.633 113.116 308.772 113.04 308.874 112.913C309.026 112.913 309.191 112.926 309.369 112.951C309.572 112.977 309.763 112.989 309.94 112.989C310.144 112.989 310.321 112.964 310.474 112.913C310.651 112.862 310.778 112.748 310.854 112.57C311.185 112.57 311.426 112.52 311.578 112.418C311.756 112.316 311.896 112.202 311.997 112.075C312.099 111.923 312.188 111.783 312.264 111.656C312.365 111.504 312.505 111.39 312.683 111.313C312.683 111.161 312.708 111.047 312.759 110.971C312.835 110.869 312.848 110.717 312.797 110.514C312.771 110.361 312.683 110.272 312.53 110.247C312.378 110.222 312.251 110.158 312.149 110.057C312.099 109.777 311.972 109.587 311.769 109.485C311.565 109.384 311.375 109.231 311.197 109.028C310.893 109.079 310.677 109.066 310.55 108.99C310.423 108.914 310.232 108.812 309.979 108.686C309.877 108.635 309.775 108.597 309.674 108.571C309.572 108.546 309.471 108.508 309.369 108.457C309.242 108.432 309.153 108.444 309.103 108.495C309.052 108.546 308.976 108.609 308.874 108.686C308.823 108.559 308.747 108.482 308.646 108.457C308.544 108.406 308.442 108.355 308.341 108.305C308.062 108.305 307.757 108.305 307.427 108.305C307.097 108.279 306.817 108.165 306.589 107.962C306.487 107.937 306.386 107.924 306.284 107.924C306.208 107.924 306.119 107.911 306.018 107.886C305.941 107.632 305.776 107.505 305.522 107.505C305.472 107.403 305.421 107.314 305.37 107.238C305.345 107.162 305.269 107.137 305.142 107.162C305.116 107.035 305.078 106.908 305.027 106.781C304.977 106.654 304.875 106.578 304.723 106.553C304.697 106.324 304.634 106.108 304.532 105.905C304.431 105.702 304.367 105.486 304.342 105.258C304.393 104.953 304.405 104.775 304.38 104.725C304.354 104.648 304.342 104.585 304.342 104.534C304.367 104.204 304.443 103.887 304.57 103.582C304.697 103.277 304.773 102.96 304.799 102.63C304.951 102.579 305.053 102.478 305.104 102.325C305.154 102.173 305.192 102.033 305.218 101.906C305.472 101.83 305.599 101.652 305.599 101.373C305.802 101.398 305.941 101.36 306.018 101.259C306.094 101.157 306.195 101.056 306.322 100.954C306.449 101.005 306.551 100.992 306.627 100.916C306.703 100.84 306.792 100.776 306.894 100.726C307.021 100.675 307.135 100.662 307.236 100.688C307.338 100.713 307.439 100.7 307.541 100.649C307.668 100.599 307.782 100.548 307.884 100.497C307.985 100.421 308.1 100.37 308.227 100.345C308.227 100.345 308.29 100.345 308.417 100.345C308.569 100.319 308.734 100.307 308.912 100.307C309.09 100.307 309.255 100.307 309.407 100.307C309.56 100.281 309.648 100.269 309.674 100.269C309.877 100.294 310.067 100.332 310.245 100.383C310.448 100.434 310.651 100.446 310.854 100.421C311.007 100.421 311.159 100.383 311.312 100.307C311.464 100.23 311.629 100.218 311.807 100.269C311.908 100.37 311.997 100.497 312.073 100.649C312.226 100.649 312.34 100.675 312.416 100.726C312.492 100.776 312.556 100.84 312.606 100.916C312.683 100.992 312.746 101.068 312.797 101.145C312.873 101.195 312.975 101.221 313.102 101.221C313.102 101.322 313.14 101.424 313.216 101.525C313.292 101.602 313.355 101.678 313.406 101.754C313.559 101.906 313.635 102.109 313.635 102.363C313.66 102.617 313.686 102.846 313.711 103.049C313.635 103.125 313.546 103.201 313.444 103.277C313.368 103.328 313.305 103.404 313.254 103.506C313.203 103.582 313.152 103.684 313.102 103.811C313.076 103.912 313 103.95 312.873 103.925C312.695 104.179 312.581 104.28 312.53 104.229C312.505 104.153 312.467 104.09 312.416 104.039C312.391 103.988 312.34 103.963 312.264 103.963C312.188 103.938 312.061 104.001 311.883 104.153C311.705 103.95 311.527 103.798 311.35 103.696C311.197 103.569 311.096 103.354 311.045 103.049C310.943 102.947 310.791 102.896 310.588 102.896C310.41 102.896 310.271 102.833 310.169 102.706C310.042 102.731 309.852 102.782 309.598 102.858C309.344 102.935 309.153 102.909 309.026 102.782C308.899 102.757 308.811 102.795 308.76 102.896C308.734 102.998 308.62 103.023 308.417 102.973C308.341 103.023 308.29 103.087 308.265 103.163C308.239 103.239 308.201 103.303 308.15 103.354C307.922 103.379 307.719 103.531 307.541 103.811C307.363 104.064 307.3 104.306 307.351 104.534C307.147 104.89 307.071 105.105 307.122 105.182C307.198 105.232 307.274 105.309 307.351 105.41C307.554 105.664 307.719 105.778 307.846 105.753C307.973 105.728 308.163 105.778 308.417 105.905C308.696 105.88 308.899 105.905 309.026 105.981C309.153 106.032 309.268 106.083 309.369 106.134C309.471 106.083 309.56 106.045 309.636 106.02C309.737 105.994 309.826 105.956 309.902 105.905C310.156 106.032 310.41 106.134 310.664 106.21C310.918 106.261 311.172 106.35 311.426 106.477C311.553 106.527 311.654 106.578 311.73 106.629C311.832 106.68 311.946 106.73 312.073 106.781C312.302 106.857 312.454 106.908 312.53 106.934C312.632 106.959 312.683 107.035 312.683 107.162C312.937 107.111 313.127 107.149 313.254 107.276C313.381 107.403 313.546 107.479 313.749 107.505C313.876 107.632 314.041 107.822 314.244 108.076C314.447 108.33 314.625 108.482 314.777 108.533C314.803 108.736 314.879 108.889 315.006 108.99C315.133 109.066 315.26 109.181 315.387 109.333ZM326.051 102.287C325.949 102.465 325.848 102.566 325.746 102.592C325.645 102.617 325.619 102.757 325.67 103.011C325.543 103.062 325.416 103.138 325.289 103.239C325.162 103.315 325.048 103.392 324.946 103.468C324.819 103.392 324.642 103.354 324.413 103.354C324.185 103.354 323.931 103.366 323.651 103.392C323.397 103.417 323.144 103.455 322.89 103.506C322.636 103.531 322.42 103.544 322.242 103.544C322.293 104.128 322.28 104.725 322.204 105.334C322.153 105.943 322.153 106.54 322.204 107.124C322.204 107.2 322.217 107.276 322.242 107.353C322.293 107.429 322.28 107.492 322.204 107.543C322.255 107.67 322.255 107.822 322.204 108C322.179 108.152 322.141 108.292 322.09 108.419C322.166 108.571 322.268 108.711 322.395 108.838C322.395 108.965 322.369 109.181 322.318 109.485C322.293 109.79 322.255 109.98 322.204 110.057C322.204 110.158 322.217 110.323 322.242 110.552C322.293 110.78 322.344 110.92 322.395 110.971C322.369 111.225 322.369 111.39 322.395 111.466C322.42 111.517 322.458 111.58 322.509 111.656C322.433 111.783 322.395 111.923 322.395 112.075C322.395 112.202 322.395 112.342 322.395 112.494C322.42 112.621 322.433 112.748 322.433 112.875C322.458 113.002 322.445 113.104 322.395 113.18C322.521 113.23 322.572 113.396 322.547 113.675C322.547 113.929 322.61 114.106 322.737 114.208C322.89 114.259 323.029 114.348 323.156 114.475C323.309 114.602 323.448 114.69 323.575 114.741C323.778 114.919 323.893 115.046 323.918 115.122C323.969 115.198 323.981 115.274 323.956 115.351C323.956 115.427 323.943 115.516 323.918 115.617C323.893 115.719 323.905 115.858 323.956 116.036C323.829 116.138 323.728 116.252 323.651 116.379C323.575 116.506 323.474 116.62 323.347 116.722C323.067 116.696 322.864 116.734 322.737 116.836C322.61 116.938 322.483 116.988 322.356 116.988C322.179 116.785 322.039 116.684 321.938 116.684C321.861 116.709 321.772 116.684 321.671 116.607C321.519 116.557 321.442 116.493 321.442 116.417C321.468 116.341 321.442 116.277 321.366 116.227C321.265 116.15 321.188 116.138 321.138 116.188C321.087 116.265 321.023 116.29 320.947 116.265C320.846 116.112 320.757 115.947 320.681 115.77C320.63 115.592 320.516 115.465 320.338 115.389C320.211 115.338 320.135 115.262 320.109 115.16C320.084 115.084 320.071 115.008 320.071 114.932C320.071 114.83 320.059 114.741 320.033 114.665C320.008 114.589 319.932 114.538 319.805 114.513C319.906 114.411 319.919 114.322 319.843 114.246C319.767 114.17 319.729 114.106 319.729 114.056C319.754 113.7 319.741 113.484 319.69 113.408C319.665 113.307 319.652 113.205 319.652 113.104C319.678 112.977 319.703 112.888 319.729 112.837C319.779 112.761 319.792 112.646 319.767 112.494C319.665 112.189 319.627 111.999 319.652 111.923C319.678 111.821 319.69 111.72 319.69 111.618C319.665 111.517 319.64 111.428 319.614 111.352C319.614 111.275 319.614 111.187 319.614 111.085C319.589 110.78 319.589 110.476 319.614 110.171C319.665 109.866 319.652 109.562 319.576 109.257C319.551 109.079 319.563 108.889 319.614 108.686C319.69 108.482 319.665 108.305 319.538 108.152C319.487 107.797 319.513 107.556 319.614 107.429C319.741 107.276 319.741 107.137 319.614 107.01C319.665 106.883 319.665 106.743 319.614 106.591C319.589 106.438 319.589 106.299 319.614 106.172C319.614 106.172 319.602 106.096 319.576 105.943C319.576 105.766 319.576 105.575 319.576 105.372C319.576 105.169 319.563 104.991 319.538 104.839C319.538 104.661 319.538 104.572 319.538 104.572C319.589 104.293 319.589 104.103 319.538 104.001C319.487 103.874 319.525 103.747 319.652 103.62C319.576 103.544 319.487 103.531 319.386 103.582C319.31 103.607 319.246 103.557 319.195 103.43C319.043 103.506 318.776 103.582 318.396 103.658C318.015 103.734 317.735 103.772 317.558 103.772C317.228 103.62 317.037 103.569 316.986 103.62C316.936 103.671 316.885 103.696 316.834 103.696C316.707 103.671 316.542 103.595 316.339 103.468C316.161 103.341 316.047 103.227 315.996 103.125C315.971 102.82 315.945 102.643 315.92 102.592C315.895 102.541 315.869 102.49 315.844 102.439C315.818 102.287 315.831 102.135 315.882 101.982C315.958 101.83 315.983 101.665 315.958 101.487C316.085 101.437 316.187 101.373 316.263 101.297C316.339 101.221 316.44 101.157 316.567 101.106C316.897 101.233 317.215 101.271 317.52 101.221C317.85 101.145 318.167 101.081 318.472 101.03C318.624 101.132 318.84 101.183 319.119 101.183C319.398 101.157 319.602 101.068 319.729 100.916C319.729 100.357 319.767 99.7861 319.843 99.2021C319.716 98.8975 319.614 98.6182 319.538 98.3643L319.69 96.7646C319.69 96.333 319.703 95.9014 319.729 95.4697C319.754 95.0127 319.779 94.5684 319.805 94.1367C319.754 94.0605 319.716 93.9717 319.69 93.8701C319.665 93.7432 319.614 93.6543 319.538 93.6035C319.665 93.4766 319.716 93.2988 319.69 93.0703C319.69 92.8164 319.754 92.6133 319.881 92.4609C319.906 92.334 319.868 92.2578 319.767 92.2324C319.665 92.207 319.602 92.1562 319.576 92.0801C319.5 91.7246 319.551 91.4453 319.729 91.2422C319.906 91.0391 320.097 90.8359 320.3 90.6328C320.452 90.6328 320.617 90.6328 320.795 90.6328C320.973 90.6074 321.125 90.6582 321.252 90.7852C321.303 90.7344 321.354 90.6963 321.404 90.6709C321.48 90.6201 321.557 90.5693 321.633 90.5186C321.684 90.5186 321.722 90.582 321.747 90.709C321.772 90.8359 321.823 90.9248 321.899 90.9756C321.95 91.0264 322.026 91.1406 322.128 91.3184C322.229 91.4707 322.293 91.585 322.318 91.6611C322.318 91.915 322.331 92.0674 322.356 92.1182C322.382 92.1689 322.382 92.2197 322.356 92.2705C322.356 92.3467 322.331 92.4229 322.28 92.499C322.229 92.5498 322.204 92.6133 322.204 92.6895C322.179 92.8926 322.191 93.0957 322.242 93.2988C322.293 93.4766 322.318 93.667 322.318 93.8701C322.318 93.9971 322.293 94.1113 322.242 94.2129C322.217 94.2891 322.229 94.416 322.28 94.5938C322.331 94.9492 322.356 95.165 322.356 95.2412C322.331 95.3174 322.331 95.3936 322.356 95.4697C322.382 95.5459 322.395 95.6221 322.395 95.6982C322.395 95.8506 322.369 95.9775 322.318 96.0791C322.268 96.1553 322.255 96.2949 322.28 96.498C322.331 96.7012 322.344 96.8281 322.318 96.8789C322.293 96.9043 322.28 97.0186 322.28 97.2217C322.28 97.2979 322.28 97.4121 322.28 97.5645C322.306 97.7168 322.318 97.8818 322.318 98.0596C322.318 98.2373 322.306 98.3896 322.28 98.5166C322.28 98.6436 322.242 98.7197 322.166 98.7451C322.268 99.0752 322.293 99.2783 322.242 99.3545C322.217 99.4307 322.204 99.5195 322.204 99.6211C322.179 99.8496 322.191 100.078 322.242 100.307C322.318 100.535 322.382 100.776 322.433 101.03C322.56 101.03 322.674 101.043 322.775 101.068C322.877 101.094 322.979 101.068 323.08 100.992C323.512 101.145 323.842 101.195 324.07 101.145C324.299 101.068 324.616 101.005 325.022 100.954C325.353 101.233 325.645 101.462 325.898 101.64C326.152 101.792 326.203 102.008 326.051 102.287ZM338.695 114.284C338.568 114.538 338.441 114.792 338.314 115.046C338.188 115.3 337.972 115.465 337.667 115.541C337.489 115.82 337.35 115.985 337.248 116.036C337.146 116.112 337.045 116.138 336.943 116.112C336.842 116.087 336.728 116.023 336.601 115.922C336.499 115.846 336.347 115.782 336.144 115.731C336.067 115.478 335.94 115.274 335.763 115.122C335.61 114.97 335.471 114.792 335.344 114.589C335.395 114.386 335.433 114.195 335.458 114.018C335.509 113.84 335.572 113.662 335.648 113.484C335.623 113.357 335.547 113.307 335.42 113.332C335.318 113.332 335.242 113.307 335.191 113.256C335.115 113.256 335.026 113.307 334.925 113.408C334.823 113.51 334.747 113.586 334.696 113.637C334.468 113.688 334.303 113.764 334.201 113.865C334.125 113.967 334.062 114.056 334.011 114.132C333.731 114.157 333.516 114.233 333.363 114.36C333.211 114.462 332.995 114.487 332.716 114.437C332.614 114.487 332.538 114.563 332.487 114.665C332.462 114.741 332.424 114.805 332.373 114.855C332.119 114.957 331.941 115.008 331.84 115.008C331.764 114.982 331.7 114.982 331.649 115.008C331.446 115.084 331.256 115.16 331.078 115.236C330.926 115.338 330.748 115.312 330.545 115.16C330.443 115.287 330.342 115.312 330.24 115.236C330.139 115.186 330.05 115.211 329.974 115.312C329.821 115.287 329.707 115.249 329.631 115.198C329.58 115.147 329.453 115.135 329.25 115.16C329.123 115.186 329.047 115.147 329.021 115.046C329.021 114.944 328.971 114.881 328.869 114.855C328.768 114.805 328.666 114.779 328.564 114.779C328.488 114.779 328.412 114.767 328.336 114.741C328.285 114.589 328.196 114.513 328.069 114.513C327.942 114.513 327.828 114.487 327.727 114.437C327.676 114.284 327.625 114.221 327.574 114.246C327.523 114.246 327.447 114.208 327.346 114.132C327.193 114.03 327.079 113.903 327.003 113.751C326.927 113.573 326.787 113.459 326.584 113.408C326.432 113.154 326.343 112.875 326.317 112.57C326.317 112.266 326.254 111.986 326.127 111.732C326.229 111.656 326.292 111.542 326.317 111.39C326.343 111.237 326.355 111.085 326.355 110.933C326.381 110.78 326.406 110.641 326.432 110.514C326.482 110.387 326.559 110.285 326.66 110.209C326.609 110.031 326.622 109.904 326.698 109.828C326.774 109.727 326.8 109.612 326.774 109.485C326.978 109.384 327.104 109.219 327.155 108.99C327.231 108.736 327.384 108.584 327.612 108.533C327.587 108.355 327.65 108.152 327.803 107.924C327.98 107.67 328.158 107.556 328.336 107.581C328.463 107.429 328.615 107.302 328.793 107.2C328.971 107.073 329.098 106.908 329.174 106.705C329.301 106.705 329.39 106.654 329.44 106.553C329.517 106.451 329.593 106.375 329.669 106.324C329.72 106.273 329.796 106.261 329.897 106.286C329.999 106.286 330.088 106.273 330.164 106.248C330.342 106.146 330.583 106.07 330.888 106.02C331.192 105.969 331.357 105.943 331.383 105.943C331.662 105.994 331.84 106.007 331.916 105.981C331.992 105.956 332.056 105.931 332.106 105.905C332.284 106.032 332.462 106.07 332.64 106.02C332.843 105.943 333.033 105.905 333.211 105.905C333.592 105.956 333.833 105.969 333.935 105.943C334.062 105.893 334.188 105.88 334.315 105.905C334.392 105.905 334.468 105.931 334.544 105.981C334.62 106.007 334.696 106.02 334.772 106.02C334.95 106.07 335.115 106.07 335.268 106.02C335.445 105.969 335.623 105.969 335.801 106.02C335.775 105.791 335.763 105.512 335.763 105.182C335.763 104.826 335.61 104.61 335.306 104.534C335.28 104.433 335.255 104.356 335.229 104.306C335.204 104.229 335.191 104.141 335.191 104.039C335.141 104.014 335.064 103.963 334.963 103.887C334.861 103.811 334.747 103.734 334.62 103.658C334.519 103.582 334.43 103.506 334.354 103.43C334.277 103.354 334.239 103.29 334.239 103.239C333.96 103.188 333.693 103.201 333.439 103.277C333.211 103.328 332.957 103.341 332.678 103.315C332.5 103.493 332.259 103.607 331.954 103.658C331.675 103.709 331.434 103.798 331.23 103.925C331.027 104.153 330.799 104.356 330.545 104.534C330.316 104.712 330.088 104.826 329.859 104.877C329.631 104.928 329.415 104.89 329.212 104.763C329.009 104.636 328.818 104.395 328.641 104.039C328.59 103.912 328.526 103.785 328.45 103.658C328.399 103.506 328.374 103.366 328.374 103.239C328.501 103.036 328.552 102.909 328.526 102.858C328.526 102.808 328.539 102.757 328.564 102.706C328.818 102.503 328.971 102.363 329.021 102.287C329.072 102.211 329.136 102.135 329.212 102.059C329.288 101.982 329.364 101.919 329.44 101.868C329.542 101.817 329.618 101.741 329.669 101.64C329.821 101.64 330.075 101.563 330.431 101.411C330.812 101.259 331.104 101.157 331.307 101.106C331.434 101.081 331.611 101.056 331.84 101.03C332.094 101.005 332.271 100.941 332.373 100.84C332.525 100.891 332.627 100.941 332.678 100.992C332.729 101.043 332.855 101.03 333.059 100.954C333.135 100.903 333.211 100.865 333.287 100.84C333.363 100.789 333.452 100.751 333.554 100.726C333.706 100.7 333.82 100.713 333.896 100.764C333.998 100.789 334.125 100.726 334.277 100.573C334.455 100.522 334.646 100.535 334.849 100.611C335.052 100.662 335.255 100.662 335.458 100.611C335.509 100.738 335.585 100.802 335.687 100.802C335.813 100.802 335.852 100.891 335.801 101.068C335.928 101.094 336.029 101.157 336.105 101.259C336.182 101.335 336.283 101.398 336.41 101.449C336.41 101.551 336.436 101.627 336.486 101.678C336.537 101.729 336.601 101.767 336.677 101.792C336.753 101.817 336.804 101.855 336.829 101.906C336.88 101.957 336.88 102.033 336.829 102.135C336.956 102.287 337.083 102.439 337.21 102.592C337.362 102.744 337.54 102.884 337.743 103.011C337.667 103.087 337.667 103.163 337.743 103.239C337.819 103.315 337.857 103.404 337.857 103.506C337.908 103.582 337.934 103.696 337.934 103.849C337.934 103.976 337.972 104.052 338.048 104.077C338.048 104.153 338.048 104.28 338.048 104.458C338.073 104.61 338.086 104.775 338.086 104.953C338.111 105.105 338.137 105.258 338.162 105.41C338.188 105.562 338.213 105.677 338.238 105.753C338.391 106.159 338.467 106.451 338.467 106.629C338.441 106.705 338.403 106.781 338.353 106.857C338.327 106.908 338.289 106.972 338.238 107.048C338.213 107.175 338.2 107.353 338.2 107.581C338.2 107.81 338.2 108.038 338.2 108.267C338.226 108.495 338.238 108.724 338.238 108.952C338.238 109.155 338.213 109.308 338.162 109.409C338.314 109.841 338.378 110.298 338.353 110.78C338.353 111.263 338.416 111.72 338.543 112.151C338.467 112.202 338.441 112.291 338.467 112.418C338.492 112.545 338.454 112.634 338.353 112.685C338.353 112.786 338.378 112.862 338.429 112.913C338.505 112.938 338.543 113.002 338.543 113.104C338.416 113.104 338.365 113.167 338.391 113.294C338.416 113.421 338.403 113.51 338.353 113.561C338.378 113.688 338.429 113.814 338.505 113.941C338.581 114.043 338.645 114.157 338.695 114.284ZM335.763 109.333C335.56 109.13 335.356 108.927 335.153 108.724C334.95 108.521 334.722 108.355 334.468 108.229C334.315 108.305 334.163 108.317 334.011 108.267C333.858 108.19 333.706 108.152 333.554 108.152C333.427 108.152 333.3 108.19 333.173 108.267C333.046 108.317 332.919 108.355 332.792 108.381C332.462 108.33 332.246 108.343 332.145 108.419C332.068 108.47 331.992 108.457 331.916 108.381C331.865 108.482 331.789 108.559 331.688 108.609C331.611 108.66 331.548 108.724 331.497 108.8H330.964C330.888 108.851 330.85 108.927 330.85 109.028C330.85 109.13 330.786 109.206 330.659 109.257C330.481 109.308 330.342 109.384 330.24 109.485C330.139 109.587 330.012 109.65 329.859 109.676C329.758 109.93 329.644 110.171 329.517 110.399C329.39 110.628 329.263 110.856 329.136 111.085C329.187 111.288 329.187 111.44 329.136 111.542C329.085 111.644 329.009 111.783 328.907 111.961C329.136 112.24 329.39 112.443 329.669 112.57C329.974 112.672 330.189 112.735 330.316 112.761C330.418 112.761 330.507 112.735 330.583 112.685C330.659 112.634 330.748 112.608 330.85 112.608C331.053 112.659 331.18 112.672 331.23 112.646C331.307 112.596 331.37 112.558 331.421 112.532C331.624 112.481 331.814 112.456 331.992 112.456C332.17 112.456 332.36 112.456 332.563 112.456C332.741 112.354 332.843 112.266 332.868 112.189C332.919 112.088 332.982 112.012 333.059 111.961H333.516C333.465 111.834 333.49 111.771 333.592 111.771C333.719 111.745 333.833 111.732 333.935 111.732C334.062 111.479 334.252 111.301 334.506 111.199C334.785 111.098 335.039 110.983 335.268 110.856C335.445 110.704 335.56 110.615 335.61 110.59C335.661 110.539 335.712 110.501 335.763 110.476C335.763 110.272 335.763 110.082 335.763 109.904C335.788 109.727 335.788 109.536 335.763 109.333ZM355.148 116.341C354.996 116.493 354.92 116.62 354.92 116.722C354.945 116.849 354.895 116.938 354.768 116.988C354.514 116.988 354.349 116.988 354.272 116.988C354.222 116.988 354.107 117.09 353.93 117.293C353.727 117.318 353.523 117.356 353.32 117.407C353.143 117.483 352.952 117.547 352.749 117.598C352.419 117.268 352.152 116.95 351.949 116.646C351.771 116.493 351.695 116.341 351.721 116.188C351.746 116.062 351.759 115.96 351.759 115.884C351.733 115.706 351.594 115.643 351.34 115.693C351.391 115.49 351.391 115.287 351.34 115.084C351.289 114.855 351.264 114.64 351.264 114.437C351.264 114.233 351.289 114.005 351.34 113.751C351.391 113.472 351.353 113.243 351.226 113.065C351.353 112.989 351.403 112.875 351.378 112.723C351.353 112.57 351.353 112.431 351.378 112.304C351.403 112.126 351.429 111.948 351.454 111.771C351.505 111.593 351.467 111.415 351.34 111.237C351.391 111.161 351.429 111.085 351.454 111.009C351.505 110.933 351.581 110.882 351.683 110.856C351.581 110.603 351.568 110.323 351.645 110.019C351.746 109.688 351.797 109.384 351.797 109.104C351.797 109.003 351.784 108.914 351.759 108.838C351.733 108.736 351.721 108.635 351.721 108.533C351.797 108.279 351.81 108.114 351.759 108.038C351.733 107.962 351.721 107.886 351.721 107.81C351.721 107.683 351.746 107.518 351.797 107.314C351.848 107.111 351.873 106.908 351.873 106.705C351.873 106.477 351.835 106.286 351.759 106.134C351.708 105.981 351.581 105.905 351.378 105.905C351.276 105.651 351.2 105.499 351.149 105.448C351.124 105.372 351.048 105.347 350.921 105.372C350.921 105.245 350.832 105.131 350.654 105.029C350.477 105.08 350.299 105.144 350.121 105.22C349.943 105.271 349.753 105.296 349.55 105.296C349.321 105.22 349.182 105.182 349.131 105.182C349.08 105.156 349.029 105.156 348.979 105.182C348.775 105.207 348.56 105.271 348.331 105.372C348.128 105.448 347.938 105.524 347.76 105.601C347.633 105.651 347.557 105.715 347.531 105.791C347.531 105.867 347.493 105.931 347.417 105.981C347.163 106.108 347.011 106.185 346.96 106.21C346.909 106.21 346.858 106.223 346.808 106.248C346.681 106.35 346.566 106.464 346.465 106.591C346.363 106.718 346.236 106.807 346.084 106.857C346.033 107.086 345.919 107.238 345.741 107.314C345.563 107.391 345.475 107.556 345.475 107.81C345.398 107.86 345.322 107.886 345.246 107.886C345.17 107.86 345.106 107.873 345.056 107.924C345.106 108.127 345.094 108.305 345.018 108.457C344.967 108.609 344.941 108.774 344.941 108.952C344.967 109.181 345.018 109.396 345.094 109.6C345.17 109.777 345.145 109.98 345.018 110.209C345.119 110.463 345.17 110.691 345.17 110.895C345.195 111.072 345.183 111.237 345.132 111.39C345.157 111.466 345.208 111.529 345.284 111.58C345.36 111.631 345.411 111.707 345.437 111.809C345.462 111.936 345.411 112.024 345.284 112.075C345.157 112.126 345.183 112.228 345.36 112.38C345.157 112.786 345.005 113.104 344.903 113.332C344.827 113.535 344.726 113.738 344.599 113.941C344.319 113.967 344.091 114.056 343.913 114.208C343.761 114.335 343.558 114.437 343.304 114.513C343.151 114.462 343.05 114.386 342.999 114.284C342.948 114.183 342.821 114.132 342.618 114.132C342.618 113.853 342.542 113.624 342.39 113.446C342.263 113.243 342.225 112.964 342.275 112.608C342.301 112.456 342.339 112.367 342.39 112.342C342.44 112.291 342.466 112.24 342.466 112.189C342.364 111.809 342.339 111.504 342.39 111.275C342.44 111.021 342.377 110.856 342.199 110.78C342.225 110.729 342.263 110.679 342.313 110.628C342.364 110.552 342.402 110.476 342.428 110.399C342.479 110.323 342.491 110.26 342.466 110.209C342.466 110.133 342.402 110.057 342.275 109.98C342.402 109.854 342.428 109.765 342.352 109.714C342.301 109.638 342.275 109.536 342.275 109.409C342.275 109.257 342.301 109.117 342.352 108.99C342.402 108.863 342.428 108.736 342.428 108.609C342.453 108.533 342.44 108.457 342.39 108.381C342.364 108.305 342.352 108.229 342.352 108.152C342.352 108.102 342.377 108.013 342.428 107.886C342.504 107.759 342.542 107.657 342.542 107.581C342.466 107.454 342.466 107.314 342.542 107.162C342.644 107.01 342.618 106.832 342.466 106.629C342.517 106.299 342.491 106.083 342.39 105.981C342.313 105.88 342.25 105.753 342.199 105.601C342.174 105.499 342.161 105.385 342.161 105.258C342.187 105.131 342.123 105.055 341.971 105.029C341.996 104.775 341.996 104.61 341.971 104.534C341.945 104.433 341.869 104.369 341.742 104.344C341.742 104.09 341.679 103.899 341.552 103.772C341.45 103.62 341.323 103.455 341.171 103.277C340.714 103.1 340.435 102.782 340.333 102.325C340.231 101.868 340.219 101.449 340.295 101.068C340.574 100.941 340.739 100.853 340.79 100.802C340.866 100.751 340.942 100.7 341.019 100.649C341.374 100.573 341.615 100.573 341.742 100.649C341.895 100.726 342.136 100.764 342.466 100.764C342.618 100.891 342.758 101.018 342.885 101.145C343.037 101.246 343.215 101.322 343.418 101.373C343.52 101.576 343.583 101.729 343.608 101.83C343.634 101.906 343.723 101.944 343.875 101.944C343.799 102.097 343.773 102.224 343.799 102.325C343.85 102.427 343.9 102.516 343.951 102.592C344.027 102.668 344.091 102.757 344.142 102.858C344.192 102.935 344.192 103.049 344.142 103.201C344.167 103.277 344.218 103.328 344.294 103.354C344.37 103.379 344.434 103.417 344.484 103.468C344.484 103.874 344.548 104.141 344.675 104.268C344.878 104.293 345.043 104.255 345.17 104.153C345.297 104.026 345.462 103.976 345.665 104.001C345.792 103.95 345.855 103.823 345.855 103.62C345.957 103.646 346.071 103.62 346.198 103.544C346.325 103.468 346.414 103.404 346.465 103.354C346.744 103.303 346.922 103.239 346.998 103.163C347.1 103.087 347.214 103.023 347.341 102.973C347.595 102.795 347.734 102.719 347.76 102.744C347.785 102.77 347.823 102.77 347.874 102.744C348.179 102.643 348.344 102.566 348.369 102.516C348.42 102.439 348.483 102.401 348.56 102.401C348.813 102.351 349.067 102.351 349.321 102.401C349.601 102.452 349.842 102.376 350.045 102.173C350.299 102.3 350.553 102.338 350.807 102.287C351.086 102.211 351.365 102.224 351.645 102.325C351.873 102.503 352.025 102.579 352.102 102.554C352.178 102.528 352.203 102.566 352.178 102.668C352.355 102.592 352.521 102.592 352.673 102.668C352.851 102.744 353.028 102.77 353.206 102.744C353.257 102.947 353.27 103.087 353.244 103.163C353.244 103.214 353.244 103.29 353.244 103.392C353.523 103.417 353.701 103.506 353.777 103.658C353.879 103.785 354.019 103.925 354.196 104.077C354.146 104.356 354.222 104.572 354.425 104.725C354.374 104.928 354.374 105.08 354.425 105.182C354.476 105.283 354.539 105.423 354.615 105.601C354.539 105.804 354.539 106.02 354.615 106.248C354.691 106.451 354.742 106.654 354.768 106.857C354.793 107.061 354.793 107.264 354.768 107.467C354.742 107.67 354.717 107.873 354.691 108.076C354.666 108.229 354.628 108.394 354.577 108.571C354.552 108.724 354.577 108.876 354.653 109.028C354.628 109.13 354.564 109.282 354.463 109.485C354.539 109.765 354.564 110.057 354.539 110.361C354.514 110.641 354.476 110.933 354.425 111.237C354.374 111.542 354.323 111.847 354.272 112.151C354.247 112.456 354.272 112.761 354.349 113.065C354.247 113.167 354.184 113.307 354.158 113.484C354.158 113.662 354.158 113.853 354.158 114.056C354.184 114.259 354.209 114.462 354.234 114.665C354.285 114.868 354.311 115.033 354.311 115.16C354.564 115.262 354.755 115.312 354.882 115.312C354.831 115.414 354.856 115.503 354.958 115.579C355.06 115.681 355.11 115.77 355.11 115.846C355.085 115.896 355.047 115.973 354.996 116.074C354.945 116.201 354.945 116.29 354.996 116.341H355.148ZM366.498 102.287C366.396 102.465 366.295 102.566 366.193 102.592C366.092 102.617 366.066 102.757 366.117 103.011C365.99 103.062 365.863 103.138 365.736 103.239C365.609 103.315 365.495 103.392 365.394 103.468C365.267 103.392 365.089 103.354 364.86 103.354C364.632 103.354 364.378 103.366 364.099 103.392C363.845 103.417 363.591 103.455 363.337 103.506C363.083 103.531 362.867 103.544 362.689 103.544C362.74 104.128 362.728 104.725 362.651 105.334C362.601 105.943 362.601 106.54 362.651 107.124C362.651 107.2 362.664 107.276 362.689 107.353C362.74 107.429 362.728 107.492 362.651 107.543C362.702 107.67 362.702 107.822 362.651 108C362.626 108.152 362.588 108.292 362.537 108.419C362.613 108.571 362.715 108.711 362.842 108.838C362.842 108.965 362.816 109.181 362.766 109.485C362.74 109.79 362.702 109.98 362.651 110.057C362.651 110.158 362.664 110.323 362.689 110.552C362.74 110.78 362.791 110.92 362.842 110.971C362.816 111.225 362.816 111.39 362.842 111.466C362.867 111.517 362.905 111.58 362.956 111.656C362.88 111.783 362.842 111.923 362.842 112.075C362.842 112.202 362.842 112.342 362.842 112.494C362.867 112.621 362.88 112.748 362.88 112.875C362.905 113.002 362.893 113.104 362.842 113.18C362.969 113.23 363.02 113.396 362.994 113.675C362.994 113.929 363.058 114.106 363.185 114.208C363.337 114.259 363.477 114.348 363.604 114.475C363.756 114.602 363.896 114.69 364.022 114.741C364.226 114.919 364.34 115.046 364.365 115.122C364.416 115.198 364.429 115.274 364.403 115.351C364.403 115.427 364.391 115.516 364.365 115.617C364.34 115.719 364.353 115.858 364.403 116.036C364.276 116.138 364.175 116.252 364.099 116.379C364.022 116.506 363.921 116.62 363.794 116.722C363.515 116.696 363.312 116.734 363.185 116.836C363.058 116.938 362.931 116.988 362.804 116.988C362.626 116.785 362.486 116.684 362.385 116.684C362.309 116.709 362.22 116.684 362.118 116.607C361.966 116.557 361.89 116.493 361.89 116.417C361.915 116.341 361.89 116.277 361.813 116.227C361.712 116.15 361.636 116.138 361.585 116.188C361.534 116.265 361.471 116.29 361.395 116.265C361.293 116.112 361.204 115.947 361.128 115.77C361.077 115.592 360.963 115.465 360.785 115.389C360.658 115.338 360.582 115.262 360.557 115.16C360.531 115.084 360.519 115.008 360.519 114.932C360.519 114.83 360.506 114.741 360.48 114.665C360.455 114.589 360.379 114.538 360.252 114.513C360.354 114.411 360.366 114.322 360.29 114.246C360.214 114.17 360.176 114.106 360.176 114.056C360.201 113.7 360.188 113.484 360.138 113.408C360.112 113.307 360.1 113.205 360.1 113.104C360.125 112.977 360.15 112.888 360.176 112.837C360.227 112.761 360.239 112.646 360.214 112.494C360.112 112.189 360.074 111.999 360.1 111.923C360.125 111.821 360.138 111.72 360.138 111.618C360.112 111.517 360.087 111.428 360.062 111.352C360.062 111.275 360.062 111.187 360.062 111.085C360.036 110.78 360.036 110.476 360.062 110.171C360.112 109.866 360.1 109.562 360.023 109.257C359.998 109.079 360.011 108.889 360.062 108.686C360.138 108.482 360.112 108.305 359.985 108.152C359.935 107.797 359.96 107.556 360.062 107.429C360.188 107.276 360.188 107.137 360.062 107.01C360.112 106.883 360.112 106.743 360.062 106.591C360.036 106.438 360.036 106.299 360.062 106.172C360.062 106.172 360.049 106.096 360.023 105.943C360.023 105.766 360.023 105.575 360.023 105.372C360.023 105.169 360.011 104.991 359.985 104.839C359.985 104.661 359.985 104.572 359.985 104.572C360.036 104.293 360.036 104.103 359.985 104.001C359.935 103.874 359.973 103.747 360.1 103.62C360.023 103.544 359.935 103.531 359.833 103.582C359.757 103.607 359.693 103.557 359.643 103.43C359.49 103.506 359.224 103.582 358.843 103.658C358.462 103.734 358.183 103.772 358.005 103.772C357.675 103.62 357.484 103.569 357.434 103.62C357.383 103.671 357.332 103.696 357.281 103.696C357.154 103.671 356.989 103.595 356.786 103.468C356.608 103.341 356.494 103.227 356.443 103.125C356.418 102.82 356.393 102.643 356.367 102.592C356.342 102.541 356.316 102.49 356.291 102.439C356.266 102.287 356.278 102.135 356.329 101.982C356.405 101.83 356.431 101.665 356.405 101.487C356.532 101.437 356.634 101.373 356.71 101.297C356.786 101.221 356.888 101.157 357.015 101.106C357.345 101.233 357.662 101.271 357.967 101.221C358.297 101.145 358.614 101.081 358.919 101.03C359.071 101.132 359.287 101.183 359.566 101.183C359.846 101.157 360.049 101.068 360.176 100.916C360.176 100.357 360.214 99.7861 360.29 99.2021C360.163 98.8975 360.062 98.6182 359.985 98.3643L360.138 96.7646C360.138 96.333 360.15 95.9014 360.176 95.4697C360.201 95.0127 360.227 94.5684 360.252 94.1367C360.201 94.0605 360.163 93.9717 360.138 93.8701C360.112 93.7432 360.062 93.6543 359.985 93.6035C360.112 93.4766 360.163 93.2988 360.138 93.0703C360.138 92.8164 360.201 92.6133 360.328 92.4609C360.354 92.334 360.315 92.2578 360.214 92.2324C360.112 92.207 360.049 92.1562 360.023 92.0801C359.947 91.7246 359.998 91.4453 360.176 91.2422C360.354 91.0391 360.544 90.8359 360.747 90.6328C360.899 90.6328 361.064 90.6328 361.242 90.6328C361.42 90.6074 361.572 90.6582 361.699 90.7852C361.75 90.7344 361.801 90.6963 361.852 90.6709C361.928 90.6201 362.004 90.5693 362.08 90.5186C362.131 90.5186 362.169 90.582 362.194 90.709C362.22 90.8359 362.271 90.9248 362.347 90.9756C362.397 91.0264 362.474 91.1406 362.575 91.3184C362.677 91.4707 362.74 91.585 362.766 91.6611C362.766 91.915 362.778 92.0674 362.804 92.1182C362.829 92.1689 362.829 92.2197 362.804 92.2705C362.804 92.3467 362.778 92.4229 362.728 92.499C362.677 92.5498 362.651 92.6133 362.651 92.6895C362.626 92.8926 362.639 93.0957 362.689 93.2988C362.74 93.4766 362.766 93.667 362.766 93.8701C362.766 93.9971 362.74 94.1113 362.689 94.2129C362.664 94.2891 362.677 94.416 362.728 94.5938C362.778 94.9492 362.804 95.165 362.804 95.2412C362.778 95.3174 362.778 95.3936 362.804 95.4697C362.829 95.5459 362.842 95.6221 362.842 95.6982C362.842 95.8506 362.816 95.9775 362.766 96.0791C362.715 96.1553 362.702 96.2949 362.728 96.498C362.778 96.7012 362.791 96.8281 362.766 96.8789C362.74 96.9043 362.728 97.0186 362.728 97.2217C362.728 97.2979 362.728 97.4121 362.728 97.5645C362.753 97.7168 362.766 97.8818 362.766 98.0596C362.766 98.2373 362.753 98.3896 362.728 98.5166C362.728 98.6436 362.689 98.7197 362.613 98.7451C362.715 99.0752 362.74 99.2783 362.689 99.3545C362.664 99.4307 362.651 99.5195 362.651 99.6211C362.626 99.8496 362.639 100.078 362.689 100.307C362.766 100.535 362.829 100.776 362.88 101.03C363.007 101.03 363.121 101.043 363.223 101.068C363.324 101.094 363.426 101.068 363.527 100.992C363.959 101.145 364.289 101.195 364.518 101.145C364.746 101.068 365.063 101.005 365.47 100.954C365.8 101.233 366.092 101.462 366.346 101.64C366.6 101.792 366.65 102.008 366.498 102.287Z" fill="black"/>
<path d="M220.546 78C220.546 76.832 220.166 76.1973 219.404 76.0957C219.15 76.0449 218.896 76.0195 218.642 76.0195H216.205L198.533 32.2969H194.496L177.585 76.0195H172.787V78H186.498C186.498 76.8828 186.167 76.248 185.507 76.0957C185.203 76.0449 184.898 76.0195 184.593 76.0195H180.632L186.269 61.2422H201.884L207.597 76.0195H202.494V78H220.546ZM200.97 59.0332H187.107L194.039 40.9805L200.97 59.0332ZM239.666 76.0957H235.628V28.4883H222.527V30.3926H228.316V71.6777C228.316 73.9121 227.605 75.2578 226.183 75.7148C225.371 75.9688 224.152 76.0957 222.527 76.0957V78H241.494C241.494 76.9336 241.164 76.3242 240.503 76.1719C240.25 76.1211 239.97 76.0957 239.666 76.0957ZM257.49 90.5684V74.9531C259.876 77.3906 263.025 78.6602 266.935 78.7617C271.658 78.7617 275.542 76.9844 278.589 73.4297C281.382 70.1289 282.779 65.9395 282.779 60.8613C282.779 54.8184 281.052 50.2988 277.599 47.3027C275.466 45.4746 272.876 44.5605 269.83 44.5605C265.31 44.5605 261.806 46.2617 259.318 49.6641C258.505 50.7812 257.871 52.0254 257.414 53.3965L257.033 45.4746H245.074V47.3789H250.177V86.2266C250.177 88.4609 249.492 89.8066 248.121 90.2637C247.41 90.4668 246.394 90.5684 245.074 90.5684V92.4727H264.193C264.193 91.3555 263.863 90.7461 263.203 90.6445C262.949 90.5938 262.644 90.5684 262.289 90.5684H257.49ZM266.707 47.8359C271.175 47.8359 273.765 51.1875 274.476 57.8906C274.628 59.1094 274.705 60.4043 274.705 61.7754C274.705 69.6973 272.75 74.4961 268.839 76.1719C267.925 76.5781 266.96 76.7812 265.945 76.7812C262.593 76.7812 260.181 74.9277 258.708 71.2207C257.845 68.9863 257.414 66.3203 257.414 63.2227C257.414 56.8242 258.962 52.2793 262.06 49.5879C263.482 48.4199 265.031 47.8359 266.707 47.8359ZM303.117 76.0957H300.07V58.8809C300.07 54.2598 301.593 51.0352 304.64 49.207C305.757 48.5469 306.9 48.2168 308.068 48.2168C311.064 48.2168 313.044 49.7402 314.009 52.7871C314.314 53.9043 314.466 55.0977 314.466 56.3672V71.7539C314.466 73.9375 314.009 75.2578 313.095 75.7148C312.486 75.9688 311.496 76.0957 310.125 76.0957V78H327.035C327.035 76.8828 326.705 76.2734 326.044 76.1719C325.791 76.1211 325.486 76.0957 325.13 76.0957H321.855V56.9004C321.855 51.0605 319.875 47.252 315.914 45.4746C314.593 44.8652 313.171 44.5605 311.648 44.5605C307.687 44.5605 304.462 46.0078 301.974 48.9023C301.162 49.918 300.527 50.9844 300.07 52.1016V28.4883H287.501V30.3926H292.757V71.7539C292.757 74.0391 291.996 75.3848 290.472 75.791C289.761 75.9941 288.771 76.0957 287.501 76.0957V78H304.945C304.945 76.9336 304.615 76.3242 303.955 76.1719C303.701 76.1211 303.421 76.0957 303.117 76.0957ZM358.341 78.7617C361.896 78.7617 364.08 77.1621 364.892 73.9629C365.146 73.0488 365.298 72.0078 365.349 70.8398L363.369 70.7637C363.013 74.3691 362.048 76.1973 360.474 76.248C359.255 76.1465 358.621 74.8516 358.57 72.3633V56.3672C358.468 48.5469 354.177 44.6113 345.697 44.5605C339.552 44.5605 335.541 45.9316 333.662 48.6738C333.103 49.5371 332.824 50.4004 332.824 51.2637C332.824 52.8887 333.585 53.9297 335.109 54.3867C335.515 54.4883 335.921 54.5391 336.328 54.5391C337.902 54.5391 338.994 53.7012 339.603 52.0254C339.705 51.7715 339.832 51.3906 339.984 50.8828C340.644 48.8516 341.457 47.5566 342.421 46.998C343.132 46.6426 343.996 46.4648 345.011 46.4648C349.125 46.5664 351.207 49.2324 351.257 54.4629V59.3379C339.07 59.4902 332.341 62.2578 331.072 67.6406C330.919 68.3516 330.843 69.0879 330.843 69.8496C330.843 73.9121 332.595 76.6289 336.099 78C337.419 78.5078 338.867 78.7617 340.441 78.7617C344.3 78.7617 347.398 77.4414 349.734 74.8008C350.496 73.8867 351.08 72.9219 351.486 71.9062C352.248 76.4258 354.533 78.7109 358.341 78.7617ZM343.564 75.6387C340.771 75.6387 339.121 73.9883 338.613 70.6875C338.511 70.0781 338.46 69.418 338.46 68.707C338.46 65.2539 340.289 63.0703 343.945 62.1562C345.824 61.6992 348.261 61.4453 351.257 61.3945V68.0215C350.394 71.5762 348.617 73.9375 345.925 75.1055C345.113 75.4609 344.326 75.6387 343.564 75.6387Z" fill="url(#paint0_linear)"/>
<path d="M133.34 30.9454C126.846 24.2922 118.137 20.5121 108.691 20.5121C108.691 20.5121 108.691 20.5121 108.543 20.5121C98.8021 20.5121 89.2082 24.2922 81.3856 30.9454C72.5297 22.9314 64.5595 19 56.8844 19C46.405 19 36.516 23.2338 29.4314 30.9454C24.1178 36.3888 20.4279 43.6468 18.8043 51.8119C18.3616 54.3825 19.9851 56.8018 22.3467 57.2554C24.7082 57.709 27.0698 56.1969 27.5126 53.6264C28.6934 47.2757 31.6453 41.5299 35.778 37.2961C41.3867 31.399 48.7666 28.0724 56.8844 28.0724C62.7883 28.0724 69.873 32.155 77.9908 40.0178C79.9096 41.9835 82.8616 41.9835 84.6327 40.0178C91.127 33.3647 99.8352 29.4333 108.396 29.4333C108.396 29.4333 108.396 29.4333 108.543 29.4333C115.776 29.4333 122.122 32.155 126.846 37.1449C132.454 43.1931 135.701 51.2071 135.701 59.5235C135.701 63.1525 135.111 66.6302 133.93 69.9568H101.016C99.8352 69.9568 98.6545 70.4104 97.7689 71.3177L84.3375 86.136L68.8398 50.1487C68.1018 48.6366 66.7735 47.5781 65.1499 47.4269C63.5263 47.2757 61.9027 48.183 61.0172 49.5438L48.7666 70.108H20.4279C17.9188 70.108 16 72.0737 16 74.6442C16 77.2147 17.9188 79.1804 20.4279 79.1804H51.2757C52.7517 79.1804 54.2277 78.4244 55.1133 77.0635L64.2643 61.7916L79.024 96.1156C79.6144 97.4765 80.7952 98.5349 82.2712 98.6861C82.5664 98.6861 82.714 98.6861 83.0091 98.6861C84.1899 98.6861 85.3707 98.2325 86.2563 97.3253L102.935 79.1804H129.502C128.764 80.0877 128.026 81.1461 127.141 81.9022L81.5332 127.264L45.3719 91.4282C43.6007 89.6137 40.7963 89.7649 39.1728 91.5794C37.4016 93.3939 37.5492 96.2668 39.3204 97.9301L78.5812 136.79C79.4668 137.698 80.5 138 81.6808 138C82.8616 138 83.8947 137.546 84.7803 136.79L133.635 88.4041C140.867 80.8437 145 70.4104 145 59.6747C144.705 49.0902 140.72 38.8081 133.34 30.9454Z" fill="url(#paint1_linear)"/>
</g>
<defs>
<filter id="filter0_d" x="0" y="0" width="371.584" height="160" filterUnits="userSpaceOnUse" color-interpolation-filters="sRGB">
<feFlood flood-opacity="0" result="BackgroundImageFix"/>
<feColorMatrix in="SourceAlpha" type="matrix" values="0 0 0 0 0 0 0 0 0 0 0 0 0 0 0 0 0 0 127 0"/>
<feOffset dy="2"/>
<feGaussianBlur stdDeviation="2.5"/>
<feColorMatrix type="matrix" values="0 0 0 0 0 0 0 0 0 0 0 0 0 0 0 0 0 0 0.27 0"/>
<feBlend mode="normal" in2="BackgroundImageFix" result="effect1_dropShadow"/>
<feBlend mode="normal" in="SourceGraphic" in2="effect1_dropShadow" result="shape"/>
</filter>
<linearGradient id="paint0_linear" x1="277.876" y1="39.3821" x2="277.876" y2="112.004" gradientUnits="userSpaceOnUse">
<stop offset="0.0001" stop-color="#006376"/>
<stop offset="1" stop-color="#C7FFFF"/>
</linearGradient>
<linearGradient id="paint1_linear" x1="80.3524" y1="19.0755" x2="80.3524" y2="138.076" gradientUnits="userSpaceOnUse">
<stop stop-color="#006376"/>
<stop offset="1" stop-color="#C7FFFF"/>
</linearGradient>
</defs>
</svg>
