<svg width="266" height="107" viewBox="0 0 266 107" fill="none" xmlns="http://www.w3.org/2000/svg">
<g filter="url(#filter0_d)">
<path d="M178.552 76.4273C178.467 76.5972 178.382 76.767 178.297 76.9369C178.212 77.1067 178.067 77.2171 177.863 77.2679C177.744 77.4545 177.651 77.5648 177.582 77.5989C177.515 77.6498 177.446 77.6672 177.378 77.6498C177.31 77.6331 177.234 77.5903 177.149 77.5227C177.08 77.4719 176.979 77.4291 176.843 77.395C176.791 77.2258 176.706 77.0894 176.587 76.9877C176.485 76.8861 176.392 76.767 176.306 76.6313C176.341 76.4955 176.366 76.3678 176.383 76.2494C176.417 76.1304 176.459 76.0113 176.511 75.8923C176.493 75.8074 176.443 75.7739 176.357 75.7906C176.289 75.7906 176.238 75.7739 176.204 75.7398C176.153 75.7398 176.093 75.7739 176.026 75.8415C175.957 75.9097 175.906 75.9605 175.872 75.9946C175.72 76.0287 175.609 76.0795 175.541 76.1471C175.49 76.2153 175.448 76.2748 175.413 76.3256C175.226 76.3424 175.082 76.3932 174.979 76.4781C174.877 76.5463 174.733 76.563 174.546 76.5296C174.477 76.563 174.426 76.6139 174.392 76.6821C174.375 76.7329 174.35 76.7757 174.316 76.8092C174.146 76.8774 174.026 76.9115 173.959 76.9115C173.908 76.8941 173.865 76.8941 173.831 76.9115C173.695 76.9623 173.567 77.0131 173.448 77.0639C173.346 77.1322 173.227 77.1148 173.091 77.0131C173.023 77.0981 172.955 77.1148 172.887 77.0639C172.819 77.0305 172.759 77.0472 172.708 77.1148C172.606 77.098 172.53 77.0726 172.479 77.0385C172.444 77.0044 172.359 76.9964 172.223 77.0131C172.138 77.0305 172.087 77.0044 172.071 76.9369C172.071 76.8687 172.036 76.8265 171.968 76.8092C171.9 76.7757 171.832 76.7583 171.764 76.7583C171.713 76.7583 171.662 76.7503 171.611 76.7329C171.577 76.6313 171.517 76.5804 171.432 76.5804C171.347 76.5804 171.271 76.563 171.203 76.5296C171.169 76.4273 171.135 76.3852 171.1 76.4019C171.066 76.4019 171.015 76.3765 170.948 76.3256C170.845 76.2574 170.769 76.1725 170.718 76.0709C170.667 75.9518 170.573 75.8756 170.437 75.8415C170.335 75.6716 170.276 75.485 170.258 75.2811C170.258 75.0778 170.216 74.8905 170.131 74.7206C170.199 74.6698 170.241 74.5936 170.258 74.4919C170.276 74.3896 170.284 74.288 170.284 74.1863C170.301 74.084 170.318 73.991 170.335 73.9061C170.369 73.8212 170.42 73.753 170.488 73.7021C170.454 73.5831 170.463 73.4982 170.513 73.4473C170.564 73.3798 170.582 73.3029 170.564 73.218C170.701 73.1504 170.786 73.0401 170.82 72.8869C170.871 72.7171 170.973 72.6154 171.126 72.5813C171.109 72.4623 171.151 72.3265 171.254 72.174C171.373 72.0042 171.492 71.9279 171.611 71.9447C171.696 71.843 171.798 71.7581 171.917 71.6899C172.036 71.6049 172.122 71.4946 172.172 71.3588C172.258 71.3588 172.317 71.3247 172.351 71.2572C172.402 71.189 172.453 71.1381 172.504 71.104C172.538 71.0699 172.589 71.0619 172.658 71.0786C172.725 71.0786 172.785 71.0699 172.836 71.0532C172.955 70.985 173.116 70.9342 173.321 70.9007C173.525 70.8666 173.635 70.8492 173.653 70.8492C173.839 70.8834 173.959 70.8921 174.01 70.8747C174.061 70.8579 174.103 70.8412 174.138 70.8238C174.256 70.9088 174.375 70.9342 174.495 70.9007C174.631 70.8492 174.758 70.8238 174.877 70.8238C175.133 70.8579 175.294 70.8666 175.362 70.8492C175.448 70.8158 175.533 70.8071 175.617 70.8238C175.669 70.8238 175.72 70.8412 175.77 70.8747C175.821 70.8921 175.872 70.9007 175.924 70.9007C176.042 70.9342 176.153 70.9342 176.256 70.9007C176.374 70.8666 176.493 70.8666 176.613 70.9007C176.595 70.7476 176.587 70.561 176.587 70.3403C176.587 70.1023 176.485 69.9578 176.281 69.907C176.264 69.8394 176.247 69.7879 176.23 69.7545C176.213 69.703 176.204 69.6442 176.204 69.5759C176.17 69.5592 176.12 69.5251 176.051 69.4743C175.983 69.4235 175.906 69.372 175.821 69.3212C175.754 69.2703 175.694 69.2195 175.643 69.1687C175.592 69.1179 175.566 69.0751 175.566 69.0409C175.379 69.0068 175.2 69.0155 175.031 69.0664C174.877 69.1005 174.707 69.1092 174.52 69.0918C174.401 69.2108 174.239 69.287 174.035 69.3212C173.848 69.3553 173.687 69.4148 173.551 69.4997C173.414 69.6522 173.261 69.7879 173.091 69.907C172.938 70.026 172.785 70.1023 172.631 70.1364C172.479 70.1705 172.334 70.1451 172.198 70.0601C172.062 69.9752 171.934 69.814 171.815 69.5759C171.781 69.491 171.738 69.4061 171.687 69.3212C171.653 69.2195 171.636 69.1259 171.636 69.0409C171.721 68.9052 171.756 68.8203 171.738 68.7862C171.738 68.7527 171.747 68.7186 171.764 68.6845C171.934 68.5487 172.036 68.4551 172.071 68.4043C172.104 68.3535 172.147 68.3026 172.198 68.2518C172.249 68.2003 172.3 68.1582 172.351 68.1241C172.419 68.09 172.47 68.0392 172.504 67.9716C172.606 67.9716 172.776 67.9201 173.015 67.8185C173.27 67.7168 173.466 67.6486 173.602 67.6145C173.687 67.5978 173.805 67.5811 173.959 67.5637C174.129 67.547 174.248 67.5042 174.316 67.4366C174.418 67.4707 174.486 67.5042 174.52 67.5383C174.554 67.5724 174.639 67.5637 174.775 67.5129C174.826 67.4788 174.877 67.4533 174.928 67.4366C174.979 67.4025 175.039 67.3771 175.107 67.3604C175.209 67.343 175.285 67.3517 175.337 67.3858C175.405 67.4025 175.49 67.3604 175.592 67.2581C175.711 67.224 175.839 67.2326 175.975 67.2835C176.111 67.3176 176.247 67.3176 176.383 67.2835C176.417 67.3684 176.468 67.4112 176.536 67.4112C176.621 67.4112 176.647 67.4707 176.613 67.5891C176.698 67.6065 176.765 67.6486 176.817 67.7168C176.868 67.7677 176.936 67.8098 177.021 67.8439C177.021 67.9121 177.038 67.9629 177.072 67.997C177.106 68.0311 177.149 68.0565 177.2 68.0733C177.251 68.09 177.285 68.1154 177.301 68.1495C177.336 68.1836 177.336 68.2344 177.301 68.3027C177.387 68.4043 177.472 68.506 177.557 68.6083C177.659 68.7099 177.778 68.8035 177.914 68.8885C177.863 68.9393 177.863 68.9901 177.914 69.0409C177.965 69.0918 177.99 69.1513 177.99 69.2195C178.024 69.2703 178.042 69.3466 178.042 69.4489C178.042 69.5338 178.067 69.5846 178.118 69.6014C178.118 69.6522 178.118 69.7371 178.118 69.8562C178.135 69.9578 178.144 70.0682 178.144 70.1872C178.16 70.2888 178.178 70.3912 178.195 70.4928C178.212 70.5945 178.229 70.6714 178.246 70.7222C178.348 70.9937 178.399 71.189 178.399 71.308C178.382 71.3588 178.356 71.4097 178.323 71.4605C178.305 71.4946 178.28 71.5374 178.246 71.5882C178.229 71.6731 178.22 71.7922 178.22 71.9447C178.22 72.0978 178.22 72.2503 178.22 72.4034C178.238 72.5559 178.246 72.709 178.246 72.8615C178.246 72.9973 178.229 73.0996 178.195 73.1671C178.297 73.456 178.339 73.7617 178.323 74.084C178.323 74.407 178.365 74.7126 178.45 75.0009C178.399 75.035 178.382 75.0945 178.399 75.1794C178.416 75.2643 178.39 75.3239 178.323 75.358C178.323 75.4255 178.339 75.4763 178.373 75.5104C178.424 75.5272 178.45 75.57 178.45 75.6382C178.365 75.6382 178.331 75.6803 178.348 75.7652C178.365 75.8502 178.356 75.9097 178.323 75.9438C178.339 76.0287 178.374 76.113 178.424 76.1979C178.475 76.2661 178.518 76.3424 178.552 76.4273ZM176.587 73.1163C176.451 72.9806 176.315 72.8448 176.178 72.709C176.042 72.5733 175.89 72.4623 175.72 72.378C175.617 72.4288 175.515 72.4369 175.413 72.4034C175.311 72.3519 175.209 72.3265 175.107 72.3265C175.022 72.3265 174.937 72.3519 174.852 72.4034C174.767 72.4369 174.682 72.4623 174.597 72.4797C174.375 72.4456 174.231 72.4542 174.163 72.5051C174.111 72.5392 174.061 72.5305 174.01 72.4797C173.975 72.5472 173.925 72.5987 173.857 72.6321C173.805 72.6662 173.763 72.709 173.729 72.7599H173.372C173.321 72.794 173.295 72.8448 173.295 72.9123C173.295 72.9806 173.253 73.0314 173.167 73.0655C173.049 73.0996 172.955 73.1504 172.887 73.218C172.819 73.2862 172.734 73.3283 172.631 73.3457C172.564 73.5156 172.487 73.6767 172.402 73.8292C172.317 73.9823 172.232 74.1348 172.147 74.288C172.181 74.4237 172.181 74.5254 172.147 74.5936C172.113 74.6618 172.062 74.7547 171.994 74.8738C172.147 75.0604 172.317 75.1961 172.504 75.2811C172.708 75.3493 172.853 75.3914 172.938 75.4088C173.006 75.4088 173.066 75.3914 173.116 75.358C173.167 75.3239 173.227 75.3065 173.295 75.3065C173.431 75.3406 173.516 75.3493 173.551 75.3319C173.602 75.2984 173.644 75.273 173.678 75.2556C173.814 75.2215 173.942 75.2048 174.061 75.2048C174.18 75.2048 174.307 75.2048 174.444 75.2048C174.562 75.1366 174.631 75.0778 174.648 75.0263C174.682 74.9587 174.724 74.9079 174.775 74.8738H175.082C175.047 74.7889 175.064 74.7467 175.133 74.7467C175.218 74.7293 175.294 74.7206 175.362 74.7206C175.448 74.5515 175.575 74.4324 175.745 74.3642C175.932 74.2967 176.102 74.2198 176.256 74.1348C176.374 74.0332 176.451 73.9736 176.485 73.9569C176.519 73.9228 176.553 73.8974 176.587 73.8807C176.587 73.7443 176.587 73.6172 176.587 73.4982C176.604 73.3798 176.604 73.2521 176.587 73.1163ZM188.019 73.1163C188.053 73.4728 188.07 73.8553 188.07 74.2625C188.088 74.6698 188.002 75.035 187.816 75.358C187.747 75.5613 187.705 75.7224 187.688 75.8415C187.671 75.9438 187.611 76.0113 187.509 76.0454C187.526 76.1979 187.501 76.3002 187.432 76.3511C187.365 76.4019 187.296 76.4781 187.229 76.5804C187.126 76.5804 187.015 76.5972 186.896 76.6313C186.778 76.6654 186.675 76.6988 186.59 76.7329C186.522 76.8687 186.471 76.9202 186.437 76.8861C186.403 76.852 186.352 76.852 186.284 76.8861C186.114 77.0044 185.952 77.0639 185.799 77.0639C185.663 77.0639 185.553 77.0639 185.468 77.0639C185.399 77.1148 185.332 77.1576 185.263 77.1917C185.212 77.2425 185.178 77.3187 185.162 77.4211C185.076 77.4545 185.026 77.4378 185.008 77.3696C184.991 77.3187 184.948 77.2846 184.881 77.2679C184.727 77.3361 184.617 77.3361 184.549 77.2679C184.498 77.1997 184.412 77.1663 184.294 77.1663C184.225 77.1663 184.149 77.183 184.064 77.2171C183.996 77.2679 183.919 77.31 183.834 77.3442C183.767 77.3783 183.689 77.395 183.604 77.395C183.537 77.4124 183.468 77.3869 183.401 77.3187C183.316 77.3187 183.256 77.3442 183.222 77.395C183.205 77.4465 183.154 77.4719 183.069 77.4719C182.881 77.4545 182.703 77.4291 182.533 77.395C182.363 77.3783 182.184 77.3869 181.997 77.4211C181.963 77.3361 181.886 77.2846 181.767 77.2679C181.665 77.2679 181.58 77.2679 181.512 77.2679C181.495 77.1997 181.452 77.1663 181.385 77.1663C181.334 77.1663 181.308 77.1322 181.308 77.0639C181.24 77.0981 181.138 77.0726 181.002 76.9877C180.883 76.9202 180.789 76.8687 180.721 76.8352C180.653 76.7503 180.559 76.648 180.441 76.5296C180.321 76.4106 180.253 76.3343 180.236 76.3002C180.202 76.2494 180.185 76.1899 180.185 76.1217C180.202 76.0367 180.168 75.9772 180.083 75.9438C180.083 75.8247 180.075 75.7485 180.057 75.7144C180.057 75.6636 180.049 75.6295 180.032 75.6121C180.015 75.5787 179.99 75.5532 179.955 75.5358C179.921 75.5017 179.879 75.4429 179.828 75.358C179.862 75.273 179.854 75.1881 179.803 75.1032C179.769 75.0009 179.777 74.9079 179.828 74.823C179.777 74.7721 179.743 74.6872 179.726 74.5682C179.726 74.4324 179.726 74.2967 179.726 74.1609C179.743 74.0078 179.769 73.8633 179.803 73.7276C179.836 73.5918 179.862 73.4901 179.879 73.4219C180.032 73.337 180.168 73.2354 180.287 73.1163C180.406 72.9806 180.551 72.8702 180.721 72.7853C180.874 72.8528 181.044 72.9123 181.231 72.9632C181.436 72.9973 181.589 73.0822 181.691 73.218C181.64 73.337 181.631 73.4387 181.665 73.5236C181.716 73.5918 181.708 73.66 181.64 73.7276C181.64 73.8974 181.58 73.991 181.461 74.0078C181.444 74.0927 181.444 74.1776 181.461 74.2625C181.495 74.3475 181.478 74.4237 181.41 74.4919C181.478 74.6277 181.495 74.7126 181.461 74.7467C181.444 74.7634 181.444 74.7889 181.461 74.823C181.478 74.9079 181.521 74.9841 181.589 75.0523C181.657 75.1032 181.691 75.1881 181.691 75.3065C181.844 75.4429 182.014 75.5359 182.201 75.5867C182.405 75.6382 182.593 75.697 182.763 75.7652C182.814 75.7485 182.873 75.7398 182.941 75.7398C183.026 75.7398 183.069 75.697 183.069 75.6121C183.154 75.6462 183.256 75.6636 183.375 75.6636C183.494 75.6462 183.588 75.5954 183.656 75.5104C183.758 75.5104 183.868 75.5191 183.988 75.5358C184.124 75.5532 184.251 75.5613 184.37 75.5613C184.506 75.5613 184.626 75.5445 184.727 75.5104C184.847 75.4763 184.932 75.4001 184.983 75.2811C185.204 75.2811 185.365 75.2476 185.468 75.1794C185.586 75.1112 185.68 75.035 185.748 74.95C185.816 74.8484 185.876 74.7547 185.927 74.6698C185.995 74.5682 186.088 74.4919 186.207 74.4404C186.207 74.3388 186.225 74.2626 186.258 74.2117C186.309 74.1435 186.318 74.0419 186.284 73.9061C186.267 73.8038 186.207 73.7443 186.106 73.7276C186.003 73.7108 185.919 73.668 185.85 73.6005C185.816 73.4132 185.731 73.2862 185.595 73.218C185.459 73.1504 185.332 73.0481 185.212 72.9123C185.008 72.9465 184.863 72.9378 184.778 72.8869C184.693 72.8361 184.566 72.7679 184.396 72.6836C184.327 72.6495 184.26 72.6241 184.191 72.6067C184.124 72.59 184.055 72.5646 183.988 72.5305C183.903 72.5138 183.843 72.5218 183.809 72.5559C183.775 72.59 183.724 72.6321 183.656 72.6836C183.622 72.5987 183.571 72.5472 183.503 72.5305C183.434 72.4964 183.367 72.4623 183.298 72.4288C183.111 72.4288 182.907 72.4288 182.686 72.4288C182.465 72.4115 182.278 72.3352 182.124 72.1995C182.057 72.1827 181.988 72.174 181.921 72.174C181.87 72.174 181.81 72.1654 181.742 72.1486C181.691 71.9788 181.58 71.8938 181.41 71.8938C181.376 71.8256 181.342 71.7661 181.308 71.7153C181.291 71.6645 181.24 71.6477 181.155 71.6645C181.138 71.5795 181.113 71.4946 181.078 71.4097C181.044 71.3247 180.977 71.2739 180.874 71.2572C180.857 71.104 180.814 70.9596 180.747 70.8238C180.678 70.6881 180.636 70.5436 180.619 70.3912C180.653 70.1872 180.662 70.0681 180.644 70.0347C180.627 69.9832 180.619 69.9411 180.619 69.907C180.636 69.6863 180.687 69.4743 180.772 69.2703C180.857 69.0664 180.908 68.8544 180.925 68.6337C181.027 68.5996 181.095 68.532 181.129 68.4297C181.163 68.3281 181.189 68.2344 181.206 68.1495C181.376 68.0987 181.461 67.9796 181.461 67.7931C181.597 67.8098 181.691 67.7844 181.742 67.7168C181.793 67.6486 181.861 67.5811 181.946 67.5129C182.031 67.547 182.099 67.5383 182.15 67.4874C182.201 67.4366 182.261 67.3938 182.329 67.3604C182.414 67.3263 182.49 67.3176 182.558 67.335C182.626 67.3517 182.695 67.343 182.763 67.3089C182.848 67.2754 182.924 67.2413 182.992 67.2072C183.06 67.1564 183.137 67.1223 183.222 67.1056C183.222 67.1056 183.265 67.1056 183.35 67.1056C183.452 67.0882 183.562 67.0802 183.681 67.0802C183.8 67.0802 183.911 67.0802 184.013 67.0802C184.115 67.0628 184.175 67.0548 184.191 67.0548C184.327 67.0715 184.455 67.0969 184.575 67.131C184.711 67.1651 184.847 67.1731 184.983 67.1564C185.084 67.1564 185.187 67.131 185.289 67.0802C185.391 67.0287 185.501 67.0207 185.62 67.0548C185.689 67.1223 185.748 67.2072 185.799 67.3089C185.901 67.3089 185.978 67.3263 186.029 67.3604C186.08 67.3938 186.122 67.4366 186.157 67.4874C186.207 67.5383 186.25 67.5891 186.284 67.6406C186.335 67.674 186.403 67.6914 186.488 67.6914C186.488 67.759 186.514 67.8272 186.565 67.8947C186.616 67.9462 186.658 67.997 186.693 68.0479C186.794 68.1495 186.845 68.2853 186.845 68.4551C186.863 68.625 186.879 68.7781 186.896 68.9139C186.845 68.9647 186.786 69.0155 186.718 69.0664C186.667 69.1005 186.624 69.1513 186.59 69.2195C186.557 69.2703 186.522 69.3385 186.488 69.4235C186.471 69.491 186.421 69.5164 186.335 69.4997C186.216 69.6696 186.14 69.7371 186.106 69.703C186.088 69.6522 186.063 69.6101 186.029 69.5759C186.012 69.5418 185.978 69.5251 185.927 69.5251C185.876 69.5084 185.791 69.5505 185.671 69.6522C185.553 69.5164 185.434 69.4148 185.314 69.3466C185.212 69.2616 185.144 69.1179 185.11 68.9139C185.042 68.8457 184.94 68.8116 184.804 68.8116C184.685 68.8116 184.591 68.7694 184.523 68.6845C184.439 68.7012 184.311 68.7353 184.14 68.7862C183.97 68.8377 183.843 68.8203 183.758 68.7353C183.673 68.7186 183.613 68.744 183.579 68.8116C183.562 68.8798 183.486 68.8965 183.35 68.8631C183.298 68.8965 183.265 68.9393 183.247 68.9901C183.231 69.041 183.205 69.0837 183.171 69.1179C183.017 69.1346 182.881 69.2362 182.763 69.4235C182.644 69.5927 182.601 69.7545 182.635 69.907C182.499 70.1451 182.448 70.2888 182.482 70.3403C182.533 70.3738 182.584 70.4253 182.635 70.4928C182.771 70.6627 182.881 70.7389 182.967 70.7222C183.052 70.7055 183.18 70.7389 183.35 70.8238C183.537 70.8071 183.673 70.8238 183.758 70.8747C183.843 70.9088 183.919 70.9429 183.988 70.977C184.055 70.9429 184.115 70.9175 184.166 70.9007C184.234 70.8834 184.294 70.8579 184.345 70.8238C184.515 70.9088 184.685 70.977 184.855 71.0278C185.026 71.0619 185.195 71.1214 185.365 71.2064C185.45 71.2398 185.519 71.2739 185.57 71.308C185.638 71.3421 185.714 71.3756 185.799 71.4097C185.952 71.4605 186.055 71.4946 186.106 71.512C186.173 71.5287 186.207 71.5795 186.207 71.6645C186.378 71.6304 186.505 71.6558 186.59 71.7407C186.675 71.8256 186.786 71.8764 186.922 71.8938C187.007 71.9788 187.118 72.1058 187.254 72.2757C187.39 72.4456 187.509 72.5472 187.611 72.5813C187.628 72.7171 187.679 72.8194 187.764 72.8869C187.849 72.9378 187.934 73.0147 188.019 73.1163ZM197.155 73.1163C197.189 73.4728 197.206 73.8553 197.206 74.2625C197.223 74.6698 197.138 75.035 196.951 75.358C196.883 75.5613 196.84 75.7224 196.823 75.8415C196.807 75.9438 196.747 76.0113 196.644 76.0454C196.662 76.1979 196.636 76.3002 196.568 76.3511C196.5 76.4019 196.432 76.4781 196.364 76.5804C196.262 76.5804 196.151 76.5972 196.032 76.6313C195.913 76.6654 195.811 76.6988 195.726 76.7329C195.658 76.8687 195.607 76.9202 195.573 76.8861C195.539 76.852 195.488 76.852 195.42 76.8861C195.249 77.0044 195.088 77.0639 194.935 77.0639C194.799 77.0639 194.688 77.0639 194.603 77.0639C194.535 77.1148 194.467 77.1576 194.399 77.1917C194.348 77.2425 194.314 77.3187 194.297 77.4211C194.212 77.4545 194.161 77.4378 194.144 77.3696C194.126 77.3187 194.084 77.2846 194.016 77.2679C193.863 77.3361 193.753 77.3361 193.684 77.2679C193.633 77.1997 193.548 77.1663 193.429 77.1663C193.361 77.1663 193.285 77.183 193.2 77.2171C193.131 77.2679 193.055 77.31 192.97 77.3442C192.902 77.3783 192.825 77.395 192.74 77.395C192.673 77.4124 192.604 77.3869 192.536 77.3187C192.451 77.3187 192.392 77.3442 192.358 77.395C192.34 77.4465 192.289 77.4719 192.204 77.4719C192.017 77.4545 191.838 77.4291 191.669 77.395C191.499 77.3783 191.32 77.3869 191.133 77.4211C191.099 77.3361 191.022 77.2846 190.903 77.2679C190.801 77.2679 190.716 77.2679 190.648 77.2679C190.631 77.1997 190.588 77.1663 190.52 77.1663C190.469 77.1663 190.443 77.1322 190.443 77.0639C190.376 77.0981 190.274 77.0726 190.137 76.9877C190.019 76.9202 189.925 76.8687 189.856 76.8352C189.789 76.7503 189.695 76.648 189.576 76.5296C189.457 76.4106 189.389 76.3343 189.372 76.3002C189.338 76.2494 189.321 76.1899 189.321 76.1217C189.338 76.0367 189.304 75.9772 189.219 75.9438C189.219 75.8247 189.21 75.7485 189.193 75.7144C189.193 75.6636 189.185 75.6295 189.168 75.6121C189.151 75.5787 189.125 75.5532 189.091 75.5358C189.057 75.5017 189.015 75.4429 188.963 75.358C188.997 75.273 188.989 75.1881 188.938 75.1032C188.904 75.0009 188.912 74.9079 188.963 74.823C188.912 74.7721 188.878 74.6872 188.861 74.5682C188.861 74.4324 188.861 74.2967 188.861 74.1609C188.878 74.0078 188.904 73.8633 188.938 73.7276C188.972 73.5918 188.997 73.4901 189.015 73.4219C189.168 73.337 189.304 73.2354 189.423 73.1163C189.542 72.9806 189.687 72.8702 189.856 72.7853C190.01 72.8528 190.18 72.9123 190.367 72.9632C190.571 72.9973 190.724 73.0822 190.827 73.218C190.776 73.337 190.767 73.4387 190.801 73.5236C190.852 73.5918 190.843 73.66 190.776 73.7276C190.776 73.8974 190.716 73.991 190.597 74.0078C190.58 74.0927 190.58 74.1776 190.597 74.2625C190.631 74.3475 190.614 74.4237 190.546 74.4919C190.614 74.6277 190.631 74.7126 190.597 74.7467C190.58 74.7634 190.58 74.7889 190.597 74.823C190.614 74.9079 190.656 74.9841 190.724 75.0523C190.792 75.1032 190.827 75.1881 190.827 75.3065C190.979 75.4429 191.15 75.5359 191.336 75.5867C191.541 75.6382 191.728 75.697 191.898 75.7652C191.949 75.7485 192.009 75.7398 192.077 75.7398C192.162 75.7398 192.204 75.697 192.204 75.6121C192.289 75.6462 192.392 75.6636 192.51 75.6636C192.63 75.6462 192.723 75.5954 192.791 75.5104C192.894 75.5104 193.004 75.5191 193.123 75.5358C193.259 75.5532 193.387 75.5613 193.506 75.5613C193.642 75.5613 193.761 75.5445 193.863 75.5104C193.982 75.4763 194.068 75.4001 194.118 75.2811C194.34 75.2811 194.501 75.2476 194.603 75.1794C194.722 75.1112 194.816 75.035 194.884 74.95C194.952 74.8484 195.012 74.7547 195.062 74.6698C195.131 74.5682 195.224 74.4919 195.343 74.4404C195.343 74.3388 195.36 74.2626 195.394 74.2117C195.445 74.1435 195.454 74.0419 195.42 73.9061C195.403 73.8038 195.343 73.7443 195.241 73.7276C195.139 73.7108 195.054 73.668 194.986 73.6005C194.952 73.4132 194.867 73.2862 194.731 73.218C194.595 73.1504 194.467 73.0481 194.348 72.9123C194.144 72.9465 193.999 72.9378 193.914 72.8869C193.829 72.8361 193.702 72.7679 193.531 72.6836C193.463 72.6495 193.395 72.6241 193.327 72.6067C193.259 72.59 193.191 72.5646 193.123 72.5305C193.038 72.5138 192.979 72.5218 192.945 72.5559C192.91 72.59 192.859 72.6321 192.791 72.6836C192.758 72.5987 192.706 72.5472 192.638 72.5305C192.57 72.4964 192.502 72.4623 192.434 72.4288C192.247 72.4288 192.043 72.4288 191.822 72.4288C191.6 72.4115 191.414 72.3352 191.26 72.1995C191.192 72.1827 191.124 72.174 191.056 72.174C191.005 72.174 190.945 72.1654 190.878 72.1486C190.827 71.9788 190.716 71.8938 190.546 71.8938C190.512 71.8256 190.478 71.7661 190.443 71.7153C190.427 71.6645 190.376 71.6477 190.291 71.6645C190.274 71.5795 190.248 71.4946 190.214 71.4097C190.18 71.3247 190.112 71.2739 190.01 71.2572C189.993 71.104 189.95 70.9596 189.883 70.8238C189.814 70.6881 189.771 70.5436 189.755 70.3912C189.789 70.1872 189.797 70.0681 189.78 70.0347C189.763 69.9832 189.755 69.9411 189.755 69.907C189.771 69.6863 189.823 69.4743 189.908 69.2703C189.993 69.0664 190.044 68.8544 190.061 68.6337C190.163 68.5996 190.231 68.532 190.265 68.4297C190.299 68.3281 190.325 68.2344 190.341 68.1495C190.512 68.0987 190.597 67.9796 190.597 67.7931C190.733 67.8098 190.827 67.7844 190.878 67.7168C190.928 67.6486 190.997 67.5811 191.082 67.5129C191.167 67.547 191.235 67.5383 191.286 67.4874C191.336 67.4366 191.396 67.3938 191.464 67.3604C191.55 67.3263 191.626 67.3176 191.694 67.335C191.762 67.3517 191.83 67.343 191.898 67.3089C191.983 67.2754 192.06 67.2413 192.128 67.2072C192.196 67.1564 192.273 67.1223 192.358 67.1056C192.358 67.1056 192.4 67.1056 192.485 67.1056C192.587 67.0882 192.698 67.0802 192.817 67.0802C192.936 67.0802 193.046 67.0802 193.149 67.0802C193.251 67.0628 193.31 67.0548 193.327 67.0548C193.463 67.0715 193.591 67.0969 193.71 67.131C193.846 67.1651 193.982 67.1731 194.118 67.1564C194.22 67.1564 194.322 67.131 194.425 67.0802C194.526 67.0287 194.637 67.0207 194.756 67.0548C194.825 67.1223 194.884 67.2072 194.935 67.3089C195.037 67.3089 195.113 67.3263 195.164 67.3604C195.215 67.3938 195.258 67.4366 195.292 67.4874C195.343 67.5383 195.385 67.5891 195.42 67.6406C195.471 67.674 195.539 67.6914 195.624 67.6914C195.624 67.759 195.649 67.8272 195.7 67.8947C195.751 67.9462 195.794 67.997 195.828 68.0479C195.93 68.1495 195.981 68.2853 195.981 68.4551C195.998 68.625 196.015 68.7781 196.032 68.9139C195.981 68.9647 195.921 69.0155 195.854 69.0664C195.802 69.1005 195.76 69.1513 195.726 69.2195C195.692 69.2703 195.658 69.3385 195.624 69.4235C195.607 69.491 195.556 69.5164 195.471 69.4997C195.352 69.6696 195.275 69.7371 195.241 69.703C195.224 69.6522 195.199 69.6101 195.164 69.5759C195.148 69.5418 195.113 69.5251 195.062 69.5251C195.012 69.5084 194.926 69.5505 194.807 69.6522C194.688 69.5164 194.569 69.4148 194.45 69.3466C194.348 69.2616 194.28 69.1179 194.246 68.9139C194.178 68.8457 194.076 68.8116 193.94 68.8116C193.82 68.8116 193.727 68.7694 193.659 68.6845C193.574 68.7012 193.446 68.7353 193.276 68.7862C193.106 68.8377 192.979 68.8203 192.894 68.7353C192.809 68.7186 192.749 68.744 192.715 68.8116C192.698 68.8798 192.621 68.8965 192.485 68.8631C192.434 68.8965 192.4 68.9393 192.383 68.9901C192.366 69.041 192.34 69.0837 192.307 69.1179C192.153 69.1346 192.017 69.2362 191.898 69.4235C191.779 69.5927 191.736 69.7545 191.771 69.907C191.635 70.1451 191.584 70.2888 191.617 70.3403C191.669 70.3738 191.72 70.4253 191.771 70.4928C191.907 70.6627 192.017 70.7389 192.102 70.7222C192.187 70.7055 192.315 70.7389 192.485 70.8238C192.673 70.8071 192.809 70.8238 192.894 70.8747C192.979 70.9088 193.055 70.9429 193.123 70.977C193.191 70.9429 193.251 70.9175 193.302 70.9007C193.37 70.8834 193.429 70.8579 193.481 70.8238C193.651 70.9088 193.82 70.977 193.99 71.0278C194.161 71.0619 194.331 71.1214 194.501 71.2064C194.586 71.2398 194.654 71.2739 194.705 71.308C194.773 71.3421 194.85 71.3756 194.935 71.4097C195.088 71.4605 195.19 71.4946 195.241 71.512C195.309 71.5287 195.343 71.5795 195.343 71.6645C195.513 71.6304 195.641 71.6558 195.726 71.7407C195.811 71.8256 195.921 71.8764 196.057 71.8938C196.143 71.9788 196.253 72.1058 196.389 72.2757C196.526 72.4456 196.644 72.5472 196.747 72.5813C196.764 72.7171 196.815 72.8194 196.9 72.8869C196.985 72.9378 197.07 73.0147 197.155 73.1163ZM200.932 65.6281C200.829 65.8149 200.778 65.9593 200.778 66.0611C200.796 66.1461 200.838 66.2224 200.906 66.2904C200.889 66.3583 200.872 66.4262 200.855 66.4941C200.838 66.545 200.821 66.6045 200.804 66.6724C200.719 66.6385 200.6 66.6639 200.447 66.7488C200.294 66.8168 200.209 66.8929 200.192 66.9779C200.106 66.9611 200.013 66.9524 199.911 66.9524C199.809 66.9524 199.715 66.9698 199.63 67.0033C199.545 66.9698 199.477 66.927 199.426 66.8762C199.392 66.8083 199.316 66.7828 199.197 66.7998C199.128 66.7148 199.069 66.63 199.018 66.545C198.967 66.4602 198.907 66.3752 198.839 66.2904C198.873 66.0696 198.873 65.9423 198.839 65.9083C198.805 65.8744 198.771 65.8404 198.737 65.8064C198.703 65.7725 198.669 65.73 198.635 65.6791C198.618 65.6281 198.626 65.5602 198.661 65.4753C198.831 65.4074 198.941 65.365 198.992 65.348C199.043 65.314 199.086 65.2885 199.12 65.2715C199.154 65.2376 199.188 65.2037 199.222 65.1697C199.256 65.1357 199.307 65.1102 199.375 65.0932C199.545 65.0084 199.656 64.9829 199.707 65.0169C199.758 65.0339 199.8 65.0424 199.834 65.0424C199.919 65.0424 199.979 65.0339 200.013 65.0169C200.047 64.9999 200.106 65.0084 200.192 65.0424C200.242 65.0763 200.277 65.0848 200.294 65.0678C200.311 65.0508 200.328 65.0339 200.345 65.0169C200.379 64.9829 200.405 64.9659 200.421 64.9659C200.456 64.9489 200.498 64.9659 200.549 65.0169C200.583 65.0509 200.6 65.1102 200.6 65.1952C200.617 65.28 200.626 65.3565 200.626 65.4244C200.642 65.5093 200.693 65.5433 200.778 65.5263C200.864 65.5093 200.914 65.5432 200.932 65.6281ZM202.744 76.8092C202.693 76.9282 202.608 77.0472 202.488 77.1663C202.284 77.2338 202.157 77.2933 202.106 77.3442C202.055 77.395 202.012 77.4291 201.978 77.4465C201.689 77.4632 201.4 77.4632 201.11 77.4465C200.838 77.4465 200.617 77.4037 200.447 77.3187C200.277 77.1489 200.141 77.0385 200.039 76.9877C199.954 76.9536 199.877 76.8941 199.809 76.8092C199.656 76.5717 199.545 76.4019 199.477 76.3002C199.426 76.1979 199.392 76.0795 199.375 75.9438C199.188 75.4509 199.01 75.0523 198.839 74.7467C198.907 74.5936 198.941 74.4404 198.941 74.288C198.941 74.1181 198.899 73.9569 198.814 73.8038C198.865 73.7704 198.899 73.7275 198.916 73.6767C198.95 73.6259 198.984 73.5831 199.018 73.549C198.967 73.4647 198.907 73.337 198.839 73.1671C198.771 72.9806 198.805 72.8528 198.941 72.7853C198.907 72.7003 198.89 72.5813 198.89 72.4288C198.907 72.259 198.933 72.1312 198.967 72.0463C198.967 71.9614 198.95 71.9025 198.916 71.8684C198.882 71.8176 198.847 71.7581 198.814 71.6899C198.882 71.52 198.941 71.4016 198.992 71.3334C198.941 71.2485 198.916 71.1381 198.916 71.0024C198.916 70.8666 198.873 70.773 198.789 70.7222C198.907 70.5356 198.95 70.3149 198.916 70.0601C198.882 69.8053 198.916 69.5927 199.018 69.4235C199.052 69.3553 199.111 69.3131 199.197 69.2957C199.298 69.279 199.341 69.2021 199.324 69.0664C199.494 69.0496 199.647 69.0837 199.783 69.1687C199.936 69.2536 200.106 69.2957 200.294 69.2957C200.242 69.3974 200.26 69.4489 200.345 69.4489C200.43 69.4489 200.498 69.4656 200.549 69.4997C200.6 69.5505 200.634 69.6268 200.651 69.7291C200.685 69.814 200.728 69.8903 200.778 69.9578C200.744 70.0427 200.711 70.1196 200.677 70.1872C200.642 70.2554 200.626 70.3316 200.626 70.4166C200.659 70.6205 200.668 70.7476 200.651 70.7984C200.634 70.8325 200.617 70.8747 200.6 70.9262C200.583 71.1468 200.592 71.3675 200.626 71.5882C200.659 71.8089 200.677 72.0383 200.677 72.2757C200.677 72.3265 200.668 72.378 200.651 72.4288C200.634 72.4797 200.626 72.5305 200.626 72.5813C200.626 72.6495 200.634 72.709 200.651 72.7599C200.668 72.8107 200.668 72.8702 200.651 72.9378C200.651 73.0568 200.626 73.1758 200.575 73.2949C200.541 73.4132 200.6 73.5156 200.753 73.6005C200.685 73.6339 200.659 73.6934 200.677 73.7784C200.711 73.8633 200.728 73.9315 200.728 73.9823C200.744 74.1181 200.744 74.2793 200.728 74.4665C200.728 74.6357 200.796 74.7634 200.932 74.8484C200.881 74.9674 200.872 75.0604 200.906 75.1286C200.94 75.1794 200.957 75.2556 200.957 75.358C201.059 75.3914 201.162 75.4168 201.264 75.4342C201.365 75.4342 201.468 75.4509 201.57 75.485C201.689 75.5191 201.774 75.57 201.825 75.6382C201.876 75.689 201.97 75.7057 202.106 75.689C202.173 75.7906 202.242 75.8756 202.309 75.9438C202.378 75.9946 202.48 76.0113 202.616 75.9946C202.582 76.0795 202.582 76.1471 202.616 76.1979C202.667 76.232 202.701 76.2828 202.718 76.3511C202.718 76.436 202.693 76.5296 202.642 76.6313C202.59 76.7162 202.624 76.7757 202.744 76.8092ZM211.318 73.1163C211.352 73.4728 211.369 73.8553 211.369 74.2625C211.386 74.6698 211.301 75.035 211.114 75.358C211.045 75.5613 211.003 75.7224 210.986 75.8415C210.969 75.9438 210.909 76.0113 210.807 76.0454C210.824 76.1979 210.799 76.3002 210.731 76.3511C210.663 76.4019 210.595 76.4781 210.527 76.5804C210.425 76.5804 210.314 76.5972 210.195 76.6313C210.076 76.6654 209.974 76.6988 209.889 76.7329C209.82 76.8687 209.77 76.9202 209.735 76.8861C209.702 76.852 209.65 76.852 209.583 76.8861C209.412 77.0044 209.251 77.0639 209.098 77.0639C208.961 77.0639 208.851 77.0639 208.766 77.0639C208.698 77.1148 208.63 77.1576 208.562 77.1917C208.511 77.2425 208.476 77.3187 208.46 77.4211C208.375 77.4545 208.324 77.4378 208.307 77.3696C208.289 77.3187 208.247 77.2846 208.179 77.2679C208.026 77.3361 207.916 77.3361 207.847 77.2679C207.796 77.1997 207.711 77.1663 207.592 77.1663C207.524 77.1663 207.447 77.183 207.362 77.2171C207.294 77.2679 207.218 77.31 207.133 77.3442C207.065 77.3783 206.988 77.395 206.903 77.395C206.835 77.4124 206.767 77.3869 206.699 77.3187C206.614 77.3187 206.554 77.3442 206.521 77.395C206.503 77.4465 206.452 77.4719 206.367 77.4719C206.18 77.4545 206.001 77.4291 205.831 77.395C205.661 77.3783 205.483 77.3869 205.295 77.4211C205.262 77.3361 205.185 77.2846 205.066 77.2679C204.963 77.2679 204.878 77.2679 204.811 77.2679C204.793 77.1997 204.751 77.1663 204.683 77.1663C204.632 77.1663 204.606 77.1322 204.606 77.0639C204.539 77.0981 204.436 77.0726 204.3 76.9877C204.181 76.9202 204.088 76.8687 204.019 76.8352C203.952 76.7503 203.858 76.648 203.739 76.5296C203.619 76.4106 203.552 76.3343 203.535 76.3002C203.501 76.2494 203.483 76.1899 203.483 76.1217C203.501 76.0367 203.467 75.9772 203.382 75.9438C203.382 75.8247 203.373 75.7485 203.356 75.7144C203.356 75.6636 203.347 75.6295 203.331 75.6121C203.313 75.5787 203.288 75.5532 203.254 75.5358C203.22 75.5017 203.177 75.4429 203.126 75.358C203.16 75.273 203.152 75.1881 203.101 75.1032C203.067 75.0009 203.075 74.9079 203.126 74.823C203.075 74.7721 203.041 74.6872 203.024 74.5682C203.024 74.4324 203.024 74.2967 203.024 74.1609C203.041 74.0078 203.067 73.8633 203.101 73.7276C203.135 73.5918 203.16 73.4901 203.177 73.4219C203.331 73.337 203.467 73.2354 203.586 73.1163C203.704 72.9806 203.849 72.8702 204.019 72.7853C204.173 72.8528 204.343 72.9123 204.53 72.9632C204.734 72.9973 204.887 73.0822 204.989 73.218C204.938 73.337 204.93 73.4387 204.963 73.5236C205.014 73.5918 205.006 73.66 204.938 73.7276C204.938 73.8974 204.878 73.991 204.76 74.0078C204.742 74.0927 204.742 74.1776 204.76 74.2625C204.793 74.3475 204.777 74.4237 204.708 74.4919C204.777 74.6277 204.793 74.7126 204.76 74.7467C204.742 74.7634 204.742 74.7889 204.76 74.823C204.777 74.9079 204.819 74.9841 204.887 75.0523C204.955 75.1032 204.989 75.1881 204.989 75.3065C205.142 75.4429 205.313 75.5359 205.499 75.5867C205.704 75.6382 205.891 75.697 206.061 75.7652C206.112 75.7485 206.172 75.7398 206.24 75.7398C206.325 75.7398 206.367 75.697 206.367 75.6121C206.452 75.6462 206.554 75.6636 206.673 75.6636C206.793 75.6462 206.886 75.5954 206.954 75.5104C207.056 75.5104 207.166 75.5191 207.286 75.5358C207.422 75.5532 207.55 75.5613 207.668 75.5613C207.805 75.5613 207.924 75.5445 208.026 75.5104C208.145 75.4763 208.23 75.4001 208.281 75.2811C208.503 75.2811 208.664 75.2476 208.766 75.1794C208.885 75.1112 208.979 75.035 209.047 74.95C209.115 74.8484 209.175 74.7547 209.225 74.6698C209.293 74.5682 209.387 74.4919 209.506 74.4404C209.506 74.3388 209.523 74.2626 209.557 74.2117C209.608 74.1435 209.617 74.0419 209.583 73.9061C209.565 73.8038 209.506 73.7443 209.404 73.7276C209.302 73.7108 209.217 73.668 209.148 73.6005C209.115 73.4132 209.03 73.2862 208.894 73.218C208.757 73.1504 208.63 73.0481 208.511 72.9123C208.307 72.9465 208.162 72.9378 208.077 72.8869C207.992 72.8361 207.864 72.7679 207.694 72.6836C207.626 72.6495 207.558 72.6241 207.49 72.6067C207.422 72.59 207.354 72.5646 207.286 72.5305C207.201 72.5138 207.141 72.5218 207.108 72.5559C207.073 72.59 207.022 72.6321 206.954 72.6836C206.92 72.5987 206.869 72.5472 206.801 72.5305C206.733 72.4964 206.665 72.4623 206.597 72.4288C206.41 72.4288 206.206 72.4288 205.985 72.4288C205.763 72.4115 205.576 72.3352 205.423 72.1995C205.355 72.1827 205.287 72.174 205.219 72.174C205.168 72.174 205.108 72.1654 205.041 72.1486C204.989 71.9788 204.878 71.8938 204.708 71.8938C204.675 71.8256 204.641 71.7661 204.606 71.7153C204.59 71.6645 204.539 71.6477 204.454 71.6645C204.436 71.5795 204.411 71.4946 204.377 71.4097C204.343 71.3247 204.275 71.2739 204.173 71.2572C204.155 71.104 204.113 70.9596 204.045 70.8238C203.977 70.6881 203.934 70.5436 203.918 70.3912C203.952 70.1872 203.96 70.0681 203.943 70.0347C203.926 69.9832 203.918 69.9411 203.918 69.907C203.934 69.6863 203.985 69.4743 204.07 69.2703C204.155 69.0664 204.206 68.8544 204.224 68.6337C204.326 68.5996 204.394 68.532 204.428 68.4297C204.462 68.3281 204.487 68.2344 204.504 68.1495C204.675 68.0987 204.76 67.9796 204.76 67.7931C204.896 67.8098 204.989 67.7844 205.041 67.7168C205.091 67.6486 205.159 67.5811 205.244 67.5129C205.329 67.547 205.398 67.5383 205.449 67.4874C205.499 67.4366 205.559 67.3938 205.627 67.3604C205.713 67.3263 205.789 67.3176 205.857 67.335C205.925 67.3517 205.993 67.343 206.061 67.3089C206.146 67.2754 206.222 67.2413 206.291 67.2072C206.358 67.1564 206.435 67.1223 206.521 67.1056C206.521 67.1056 206.563 67.1056 206.648 67.1056C206.75 67.0882 206.86 67.0802 206.98 67.0802C207.099 67.0802 207.209 67.0802 207.311 67.0802C207.414 67.0628 207.473 67.0548 207.49 67.0548C207.626 67.0715 207.753 67.0969 207.873 67.131C208.009 67.1651 208.145 67.1731 208.281 67.1564C208.383 67.1564 208.485 67.131 208.588 67.0802C208.689 67.0287 208.8 67.0207 208.919 67.0548C208.987 67.1223 209.047 67.2072 209.098 67.3089C209.2 67.3089 209.276 67.3263 209.327 67.3604C209.378 67.3938 209.421 67.4366 209.455 67.4874C209.506 67.5383 209.548 67.5891 209.583 67.6406C209.634 67.674 209.702 67.6914 209.787 67.6914C209.787 67.759 209.812 67.8272 209.863 67.8947C209.914 67.9462 209.956 67.997 209.991 68.0479C210.093 68.1495 210.144 68.2853 210.144 68.4551C210.161 68.625 210.178 68.7781 210.195 68.9139C210.144 68.9647 210.084 69.0155 210.016 69.0664C209.965 69.1005 209.923 69.1513 209.889 69.2195C209.855 69.2703 209.82 69.3385 209.787 69.4235C209.77 69.491 209.719 69.5164 209.634 69.4997C209.514 69.6696 209.438 69.7371 209.404 69.703C209.387 69.6522 209.361 69.6101 209.327 69.5759C209.311 69.5418 209.276 69.5251 209.225 69.5251C209.175 69.5084 209.089 69.5505 208.97 69.6522C208.851 69.5164 208.732 69.4148 208.613 69.3466C208.511 69.2616 208.443 69.1179 208.409 68.9139C208.34 68.8457 208.239 68.8116 208.103 68.8116C207.983 68.8116 207.89 68.7694 207.822 68.6845C207.737 68.7012 207.609 68.7353 207.439 68.7862C207.269 68.8377 207.141 68.8203 207.056 68.7353C206.971 68.7186 206.912 68.744 206.878 68.8116C206.86 68.8798 206.784 68.8965 206.648 68.8631C206.597 68.8965 206.563 68.9393 206.546 68.9901C206.529 69.041 206.503 69.0837 206.469 69.1179C206.316 69.1346 206.18 69.2362 206.061 69.4235C205.942 69.5927 205.899 69.7545 205.934 69.907C205.797 70.1451 205.746 70.2888 205.78 70.3403C205.831 70.3738 205.882 70.4253 205.934 70.4928C206.07 70.6627 206.18 70.7389 206.265 70.7222C206.35 70.7055 206.478 70.7389 206.648 70.8238C206.835 70.8071 206.971 70.8238 207.056 70.8747C207.141 70.9088 207.218 70.9429 207.286 70.977C207.354 70.9429 207.414 70.9175 207.465 70.9007C207.532 70.8834 207.592 70.8579 207.643 70.8238C207.813 70.9088 207.983 70.977 208.153 71.0278C208.324 71.0619 208.494 71.1214 208.664 71.2064C208.749 71.2398 208.817 71.2739 208.868 71.308C208.936 71.3421 209.012 71.3756 209.098 71.4097C209.251 71.4605 209.353 71.4946 209.404 71.512C209.472 71.5287 209.506 71.5795 209.506 71.6645C209.676 71.6304 209.804 71.6558 209.889 71.7407C209.974 71.8256 210.084 71.8764 210.22 71.8938C210.306 71.9788 210.416 72.1058 210.552 72.2757C210.688 72.4456 210.807 72.5472 210.909 72.5813C210.927 72.7171 210.978 72.8194 211.063 72.8869C211.148 72.9378 211.233 73.0147 211.318 73.1163ZM218.463 68.4043C218.395 68.5233 218.327 68.5909 218.259 68.6083C218.191 68.625 218.174 68.7186 218.208 68.8885C218.123 68.9226 218.038 68.9734 217.953 69.0409C217.867 69.0918 217.791 69.1433 217.723 69.1941C217.638 69.1433 217.519 69.1179 217.366 69.1179C217.213 69.1179 217.043 69.1259 216.855 69.1433C216.685 69.16 216.515 69.1854 216.345 69.2195C216.175 69.2362 216.03 69.2449 215.911 69.2449C215.945 69.6355 215.936 70.0347 215.886 70.442C215.851 70.8492 215.851 71.2485 215.886 71.639C215.886 71.6899 215.894 71.7407 215.911 71.7922C215.945 71.843 215.936 71.8851 215.886 71.9192C215.92 72.0042 215.92 72.1058 215.886 72.2249C215.869 72.3265 215.843 72.4201 215.809 72.5051C215.86 72.6067 215.928 72.7003 216.014 72.7853C216.014 72.8702 215.996 73.0147 215.962 73.218C215.945 73.4219 215.92 73.549 215.886 73.6005C215.886 73.668 215.894 73.7784 215.911 73.9315C215.945 74.084 215.979 74.1776 216.014 74.2117C215.996 74.3816 215.996 74.4919 216.014 74.5428C216.03 74.5769 216.056 74.619 216.09 74.6698C216.039 74.7547 216.014 74.8484 216.014 74.95C216.014 75.035 216.014 75.1286 216.014 75.2302C216.03 75.3152 216.039 75.4001 216.039 75.485C216.056 75.57 216.047 75.6382 216.014 75.689C216.098 75.7224 216.132 75.8334 216.115 76.02C216.115 76.1899 216.158 76.3083 216.243 76.3765C216.345 76.4106 216.438 76.4701 216.523 76.555C216.626 76.64 216.719 76.6988 216.804 76.7329C216.94 76.8519 217.017 76.9369 217.034 76.9877C217.068 77.0385 217.076 77.0894 217.059 77.1409C217.059 77.1917 217.051 77.2512 217.034 77.3187C217.017 77.3869 217.025 77.4799 217.059 77.5989C216.974 77.6672 216.907 77.7434 216.855 77.8283C216.804 77.9133 216.736 77.9895 216.651 78.0577C216.464 78.0403 216.328 78.0657 216.243 78.1339C216.158 78.2022 216.072 78.2356 215.987 78.2356C215.869 78.0998 215.775 78.0323 215.707 78.0323C215.656 78.049 215.596 78.0323 215.528 77.9808C215.427 77.9474 215.375 77.9046 215.375 77.8537C215.392 77.8029 215.375 77.7601 215.324 77.7267C215.256 77.6752 215.205 77.6672 215.171 77.7006C215.137 77.7521 215.094 77.7688 215.043 77.7521C214.976 77.6498 214.916 77.5394 214.865 77.4211C214.831 77.302 214.755 77.2171 214.635 77.1663C214.55 77.1322 214.499 77.0813 214.482 77.0131C214.465 76.9623 214.456 76.9115 214.456 76.8606C214.456 76.7924 214.448 76.7329 214.431 76.6821C214.414 76.6313 214.363 76.5972 214.278 76.5804C214.346 76.5122 214.355 76.4527 214.304 76.4019C214.253 76.3511 214.227 76.3083 214.227 76.2748C214.244 76.0367 214.235 75.8923 214.201 75.8415C214.184 75.7739 214.176 75.7057 214.176 75.6382C214.193 75.5532 214.21 75.4937 214.227 75.4596C214.261 75.4088 214.269 75.3319 214.253 75.2302C214.184 75.0263 214.159 74.8992 214.176 74.8484C214.193 74.7802 214.201 74.7126 214.201 74.6444C214.184 74.5769 214.168 74.5173 214.15 74.4665C214.15 74.415 214.15 74.3562 214.15 74.288C214.133 74.084 214.133 73.8807 214.15 73.6767C214.184 73.4728 214.176 73.2695 214.125 73.0655C214.108 72.9465 214.116 72.8194 214.15 72.6836C214.201 72.5472 214.184 72.4288 214.099 72.3265C214.065 72.0891 214.083 71.9279 214.15 71.843C214.235 71.7407 214.235 71.6477 214.15 71.5628C214.184 71.4779 214.184 71.3843 214.15 71.2826C214.133 71.1803 214.133 71.0873 214.15 71.0024C214.15 71.0024 214.142 70.9516 214.125 70.8492C214.125 70.7309 214.125 70.6032 214.125 70.4674C214.125 70.3316 214.116 70.2126 214.099 70.1109C214.099 69.9919 214.099 69.9324 214.099 69.9324C214.133 69.7458 214.133 69.6187 214.099 69.5505C214.065 69.4656 214.091 69.3807 214.176 69.2957C214.125 69.2449 214.065 69.2362 213.997 69.2703C213.946 69.287 213.904 69.2536 213.869 69.1687C213.768 69.2195 213.589 69.2703 213.334 69.3212C213.079 69.372 212.891 69.3974 212.773 69.3974C212.552 69.2957 212.424 69.2616 212.389 69.2957C212.356 69.3299 212.322 69.3466 212.288 69.3466C212.202 69.3298 212.092 69.279 211.956 69.1941C211.837 69.1092 211.76 69.0329 211.726 68.9647C211.709 68.7607 211.692 68.6424 211.675 68.6083C211.658 68.5742 211.641 68.5401 211.624 68.506C211.607 68.4043 211.615 68.3027 211.65 68.2003C211.701 68.0987 211.717 67.9883 211.701 67.8693C211.786 67.8359 211.854 67.7931 211.905 67.7422C211.956 67.6914 212.024 67.6486 212.109 67.6145C212.33 67.6994 212.543 67.7248 212.747 67.6914C212.968 67.6406 213.181 67.5978 213.385 67.5637C213.487 67.6319 213.632 67.666 213.819 67.666C214.005 67.6486 214.142 67.5891 214.227 67.4874C214.227 67.1136 214.253 66.7318 214.304 66.3413C214.219 66.1376 214.15 65.9508 214.099 65.781L214.201 64.7112C214.201 64.4226 214.21 64.1339 214.227 63.8452C214.244 63.5396 214.261 63.2425 214.278 62.9538C214.244 62.9028 214.219 62.8434 214.201 62.7755C214.184 62.6906 214.15 62.6312 214.099 62.5972C214.184 62.5123 214.219 62.3934 214.201 62.2406C214.201 62.0708 214.244 61.935 214.329 61.8331C214.346 61.7482 214.32 61.6973 214.253 61.6803C214.184 61.6633 214.142 61.6293 214.125 61.5784C214.074 61.3407 214.108 61.1539 214.227 61.0181C214.346 60.8823 214.474 60.7464 214.61 60.6105C214.712 60.6105 214.822 60.6105 214.941 60.6105C215.061 60.5936 215.163 60.6275 215.248 60.7125C215.282 60.6785 215.316 60.653 215.35 60.636C215.4 60.6021 215.452 60.5681 215.503 60.5342C215.537 60.5342 215.563 60.5766 215.579 60.6615C215.596 60.7464 215.63 60.8058 215.681 60.8398C215.715 60.8738 215.766 60.9501 215.835 61.069C215.902 61.1709 215.945 61.2473 215.962 61.2982C215.962 61.468 215.971 61.5699 215.987 61.6039C216.005 61.6378 216.005 61.6718 215.987 61.7058C215.987 61.7567 215.971 61.8077 215.936 61.8586C215.902 61.8925 215.886 61.935 215.886 61.986C215.869 62.1218 215.877 62.2576 215.911 62.3934C215.945 62.5123 215.962 62.6397 215.962 62.7755C215.962 62.8604 215.945 62.9368 215.911 63.0047C215.894 63.0557 215.902 63.1406 215.936 63.2595C215.971 63.4971 215.987 63.6415 215.987 63.6924C215.971 63.7434 215.971 63.7943 215.987 63.8452C216.005 63.8962 216.014 63.9471 216.014 63.998C216.014 64.1 215.996 64.1848 215.962 64.2528C215.928 64.3037 215.92 64.3971 215.936 64.5329C215.971 64.6688 215.979 64.7537 215.962 64.7876C215.945 64.8046 215.936 64.8811 215.936 65.0169C215.936 65.0678 215.936 65.1442 215.936 65.2461C215.954 65.348 215.962 65.4583 215.962 65.5772C215.962 65.6961 215.954 65.7979 215.936 65.8828C215.936 65.9678 215.911 66.0187 215.86 66.0357C215.928 66.2564 215.945 66.3922 215.911 66.4432C215.894 66.4941 215.886 66.5535 215.886 66.6215C215.869 66.7743 215.877 66.927 215.911 67.0802C215.962 67.2326 216.005 67.3938 216.039 67.5637C216.124 67.5637 216.2 67.5724 216.268 67.5891C216.336 67.6065 216.405 67.5891 216.472 67.5383C216.762 67.6406 216.983 67.674 217.136 67.6406C217.289 67.5891 217.502 67.547 217.774 67.5129C217.995 67.6994 218.191 67.8526 218.361 67.9716C218.531 68.0733 218.565 68.2177 218.463 68.4043ZM226.935 76.4273C226.85 76.5972 226.765 76.767 226.68 76.9369C226.595 77.1067 226.45 77.2171 226.246 77.2679C226.127 77.4545 226.034 77.5648 225.965 77.5989C225.897 77.6498 225.829 77.6672 225.761 77.6498C225.693 77.6331 225.617 77.5903 225.532 77.5227C225.464 77.4719 225.362 77.4291 225.226 77.395C225.174 77.2258 225.089 77.0894 224.97 76.9877C224.868 76.8861 224.775 76.767 224.69 76.6313C224.724 76.4955 224.749 76.3678 224.766 76.2494C224.8 76.1304 224.842 76.0113 224.893 75.8923C224.877 75.8074 224.826 75.7739 224.741 75.7906C224.672 75.7906 224.621 75.7739 224.587 75.7398C224.536 75.7398 224.477 75.7739 224.409 75.8415C224.341 75.9097 224.29 75.9605 224.256 75.9946C224.103 76.0287 223.992 76.0795 223.924 76.1471C223.873 76.2153 223.831 76.2748 223.797 76.3256C223.609 76.3424 223.465 76.3932 223.362 76.4781C223.261 76.5463 223.116 76.563 222.929 76.5296C222.861 76.563 222.81 76.6139 222.775 76.6821C222.759 76.7329 222.733 76.7757 222.699 76.8092C222.529 76.8774 222.41 76.9115 222.342 76.9115C222.291 76.8941 222.248 76.8941 222.214 76.9115C222.078 76.9623 221.951 77.0131 221.831 77.0639C221.729 77.1322 221.61 77.1148 221.474 77.0131C221.406 77.0981 221.338 77.1148 221.27 77.0639C221.202 77.0305 221.143 77.0472 221.092 77.1148C220.989 77.098 220.913 77.0726 220.862 77.0385C220.828 77.0044 220.743 76.9964 220.607 77.0131C220.521 77.0305 220.471 77.0044 220.453 76.9369C220.453 76.8687 220.42 76.8265 220.351 76.8092C220.284 76.7757 220.215 76.7583 220.147 76.7583C220.096 76.7583 220.045 76.7503 219.994 76.7329C219.96 76.6313 219.9 76.5804 219.815 76.5804C219.73 76.5804 219.654 76.563 219.586 76.5296C219.552 76.4273 219.518 76.3852 219.484 76.4019C219.449 76.4019 219.398 76.3765 219.331 76.3256C219.228 76.2574 219.152 76.1725 219.101 76.0709C219.05 75.9518 218.956 75.8756 218.82 75.8415C218.718 75.6716 218.659 75.485 218.641 75.2811C218.641 75.0778 218.599 74.8905 218.514 74.7206C218.582 74.6698 218.625 74.5936 218.641 74.4919C218.659 74.3896 218.667 74.288 218.667 74.1863C218.684 74.084 218.701 73.991 218.718 73.9061C218.752 73.8212 218.804 73.753 218.871 73.7021C218.837 73.5831 218.846 73.4982 218.897 73.4473C218.948 73.3798 218.965 73.3029 218.948 73.218C219.084 73.1504 219.169 73.0401 219.203 72.8869C219.254 72.7171 219.356 72.6154 219.509 72.5813C219.492 72.4623 219.535 72.3265 219.637 72.174C219.756 72.0042 219.875 71.9279 219.994 71.9447C220.079 71.843 220.181 71.7581 220.3 71.6899C220.42 71.6049 220.505 71.4946 220.556 71.3588C220.641 71.3588 220.7 71.3247 220.734 71.2572C220.785 71.189 220.836 71.1381 220.887 71.104C220.921 71.0699 220.972 71.0619 221.04 71.0786C221.108 71.0786 221.168 71.0699 221.219 71.0532C221.338 70.985 221.5 70.9342 221.704 70.9007C221.908 70.8666 222.018 70.8492 222.036 70.8492C222.223 70.8834 222.342 70.8921 222.393 70.8747C222.444 70.8579 222.487 70.8412 222.52 70.8238C222.639 70.9088 222.759 70.9342 222.878 70.9007C223.014 70.8492 223.141 70.8238 223.261 70.8238C223.516 70.8579 223.677 70.8666 223.746 70.8492C223.831 70.8158 223.915 70.8071 224 70.8238C224.052 70.8238 224.103 70.8412 224.154 70.8747C224.205 70.8921 224.255 70.9007 224.306 70.9007C224.426 70.9342 224.536 70.9342 224.639 70.9007C224.757 70.8666 224.877 70.8666 224.996 70.9007C224.978 70.7476 224.97 70.561 224.97 70.3403C224.97 70.1023 224.868 69.9578 224.664 69.907C224.647 69.8394 224.63 69.7879 224.613 69.7545C224.596 69.703 224.587 69.6442 224.587 69.5759C224.554 69.5592 224.502 69.5251 224.434 69.4743C224.366 69.4235 224.29 69.372 224.205 69.3212C224.137 69.2703 224.077 69.2195 224.026 69.1687C223.975 69.1179 223.949 69.0751 223.949 69.0409C223.762 69.0068 223.583 69.0155 223.413 69.0664C223.261 69.1005 223.09 69.1092 222.903 69.0918C222.784 69.2108 222.623 69.287 222.418 69.3212C222.231 69.3553 222.07 69.4148 221.933 69.4997C221.797 69.6522 221.644 69.7879 221.474 69.907C221.321 70.026 221.168 70.1023 221.015 70.1364C220.862 70.1705 220.717 70.1451 220.581 70.0601C220.445 69.9752 220.317 69.814 220.198 69.5759C220.164 69.491 220.121 69.4061 220.071 69.3212C220.036 69.2195 220.02 69.1259 220.02 69.0409C220.105 68.9052 220.139 68.8203 220.121 68.7862C220.121 68.7527 220.13 68.7186 220.147 68.6845C220.317 68.5487 220.42 68.4551 220.453 68.4043C220.487 68.3535 220.53 68.3026 220.581 68.2518C220.632 68.2003 220.683 68.1582 220.734 68.1241C220.802 68.09 220.853 68.0392 220.887 67.9716C220.989 67.9716 221.159 67.9201 221.398 67.8185C221.653 67.7168 221.849 67.6486 221.985 67.6145C222.07 67.5978 222.188 67.5811 222.342 67.5637C222.512 67.547 222.631 67.5042 222.699 67.4366C222.801 67.4707 222.869 67.5042 222.903 67.5383C222.938 67.5724 223.022 67.5637 223.159 67.5129C223.21 67.4788 223.26 67.4533 223.311 67.4366C223.362 67.4025 223.422 67.3771 223.49 67.3604C223.592 67.343 223.669 67.3517 223.719 67.3858C223.788 67.4025 223.873 67.3604 223.975 67.2581C224.094 67.224 224.222 67.2326 224.358 67.2835C224.494 67.3176 224.63 67.3176 224.766 67.2835C224.8 67.3684 224.851 67.4112 224.919 67.4112C225.004 67.4112 225.03 67.4707 224.996 67.5891C225.081 67.6065 225.149 67.6486 225.2 67.7168C225.251 67.7677 225.319 67.8098 225.404 67.8439C225.404 67.9121 225.421 67.9629 225.455 67.997C225.489 68.0311 225.532 68.0565 225.583 68.0733C225.634 68.09 225.668 68.1154 225.685 68.1495C225.719 68.1836 225.719 68.2344 225.685 68.3027C225.77 68.4043 225.855 68.506 225.94 68.6083C226.042 68.7099 226.161 68.8035 226.297 68.8885C226.246 68.9393 226.246 68.9901 226.297 69.0409C226.348 69.0918 226.373 69.1513 226.373 69.2195C226.408 69.2703 226.425 69.3466 226.425 69.4489C226.425 69.5338 226.45 69.5846 226.501 69.6014C226.501 69.6522 226.501 69.7371 226.501 69.8562C226.518 69.9578 226.527 70.0682 226.527 70.1872C226.544 70.2888 226.561 70.3912 226.578 70.4928C226.595 70.5945 226.612 70.6714 226.629 70.7222C226.731 70.9937 226.782 71.189 226.782 71.308C226.765 71.3588 226.739 71.4097 226.706 71.4605C226.688 71.4946 226.663 71.5374 226.629 71.5882C226.612 71.6731 226.603 71.7922 226.603 71.9447C226.603 72.0978 226.603 72.2503 226.603 72.4034C226.621 72.5559 226.629 72.709 226.629 72.8615C226.629 72.9973 226.612 73.0996 226.578 73.1671C226.68 73.456 226.723 73.7617 226.706 74.084C226.706 74.407 226.748 74.7126 226.833 75.0009C226.782 75.035 226.765 75.0945 226.782 75.1794C226.799 75.2643 226.773 75.3239 226.706 75.358C226.706 75.4255 226.723 75.4763 226.757 75.5104C226.808 75.5272 226.833 75.57 226.833 75.6382C226.748 75.6382 226.714 75.6803 226.731 75.7652C226.748 75.8502 226.739 75.9097 226.706 75.9438C226.723 76.0287 226.757 76.113 226.808 76.1979C226.859 76.2661 226.901 76.3424 226.935 76.4273ZM224.97 73.1163C224.834 72.9806 224.698 72.8448 224.562 72.709C224.426 72.5733 224.273 72.4623 224.103 72.378C224 72.4288 223.898 72.4369 223.797 72.4034C223.694 72.3519 223.592 72.3265 223.49 72.3265C223.405 72.3265 223.32 72.3519 223.235 72.4034C223.15 72.4369 223.065 72.4623 222.98 72.4797C222.759 72.4456 222.614 72.4542 222.546 72.5051C222.495 72.5392 222.444 72.5305 222.393 72.4797C222.359 72.5472 222.308 72.5987 222.24 72.6321C222.188 72.6662 222.146 72.709 222.112 72.7599H221.755C221.704 72.794 221.679 72.8448 221.679 72.9123C221.679 72.9806 221.636 73.0314 221.551 73.0655C221.431 73.0996 221.338 73.1504 221.27 73.218C221.202 73.2862 221.117 73.3283 221.015 73.3457C220.947 73.5156 220.871 73.6767 220.785 73.8292C220.7 73.9823 220.615 74.1348 220.53 74.288C220.564 74.4237 220.564 74.5254 220.53 74.5936C220.496 74.6618 220.445 74.7547 220.377 74.8738C220.53 75.0604 220.7 75.1961 220.887 75.2811C221.092 75.3493 221.236 75.3914 221.321 75.4088C221.389 75.4088 221.449 75.3914 221.5 75.358C221.551 75.3239 221.61 75.3065 221.679 75.3065C221.815 75.3406 221.9 75.3493 221.933 75.3319C221.985 75.2984 222.027 75.273 222.061 75.2556C222.197 75.2215 222.324 75.2048 222.444 75.2048C222.563 75.2048 222.69 75.2048 222.826 75.2048C222.946 75.1366 223.014 75.0778 223.031 75.0263C223.065 74.9587 223.107 74.9079 223.159 74.8738H223.465C223.431 74.7889 223.447 74.7467 223.516 74.7467C223.601 74.7293 223.677 74.7206 223.746 74.7206C223.831 74.5515 223.958 74.4324 224.128 74.3642C224.315 74.2967 224.485 74.2198 224.639 74.1348C224.757 74.0332 224.834 73.9736 224.868 73.9569C224.902 73.9228 224.936 73.8974 224.97 73.8807C224.97 73.7443 224.97 73.6172 224.97 73.4982C224.987 73.3798 224.987 73.2521 224.97 73.1163ZM237.959 77.8029C237.857 77.9046 237.806 77.9895 237.806 78.0577C237.823 78.1426 237.789 78.2022 237.704 78.2356C237.534 78.2356 237.424 78.2356 237.372 78.2356C237.338 78.2356 237.261 78.3038 237.143 78.4396C237.007 78.4563 236.87 78.4817 236.734 78.5158C236.615 78.5666 236.487 78.6094 236.351 78.6435C236.13 78.4228 235.951 78.2102 235.815 78.0069C235.696 77.9046 235.645 77.8029 235.663 77.7006C235.679 77.6163 235.688 77.5481 235.688 77.4973C235.671 77.3783 235.578 77.3361 235.407 77.3696C235.442 77.2338 235.442 77.0981 235.407 76.9623C235.373 76.8092 235.356 76.6654 235.356 76.5296C235.356 76.3932 235.373 76.2407 235.407 76.0709C235.442 75.8843 235.416 75.7311 235.331 75.6121C235.416 75.5613 235.45 75.485 235.433 75.3834C235.416 75.2811 235.416 75.1881 235.433 75.1032C235.45 74.9841 235.467 74.8651 235.484 74.7467C235.518 74.6277 235.492 74.5086 235.407 74.3896C235.442 74.3388 235.467 74.288 235.484 74.2371C235.518 74.1863 235.569 74.1522 235.637 74.1348C235.569 73.9656 235.56 73.7784 235.612 73.5751C235.679 73.3537 235.714 73.1504 235.714 72.9632C235.714 72.8956 235.705 72.8361 235.688 72.7853C235.671 72.7171 235.663 72.6495 235.663 72.5813C235.714 72.4114 235.722 72.3011 235.688 72.2503C235.671 72.1995 235.663 72.1486 235.663 72.0978C235.663 72.0129 235.679 71.9025 235.714 71.7661C235.748 71.6304 235.765 71.4946 235.765 71.3588C235.765 71.2064 235.739 71.0786 235.688 70.977C235.654 70.8747 235.569 70.8238 235.433 70.8238C235.365 70.654 235.314 70.5523 235.279 70.5182C235.263 70.4674 235.212 70.4507 235.127 70.4674C235.127 70.3825 235.067 70.3062 234.948 70.238C234.829 70.2721 234.71 70.3149 234.591 70.3657C234.471 70.3998 234.344 70.4166 234.208 70.4166C234.055 70.3657 233.961 70.3403 233.927 70.3403C233.893 70.3229 233.859 70.3229 233.825 70.3403C233.689 70.357 233.545 70.3999 233.391 70.4674C233.255 70.5182 233.128 70.569 233.009 70.6205C232.924 70.654 232.873 70.6968 232.855 70.7476C232.855 70.7984 232.83 70.8412 232.779 70.8747C232.609 70.9596 232.507 71.0111 232.473 71.0278C232.439 71.0278 232.404 71.0365 232.371 71.0532C232.286 71.1214 232.209 71.1977 232.141 71.2826C232.073 71.3675 231.988 71.4271 231.886 71.4605C231.852 71.6136 231.775 71.7153 231.656 71.7661C231.537 71.8176 231.478 71.9279 231.478 72.0978C231.426 72.1312 231.375 72.1486 231.324 72.1486C231.273 72.1312 231.23 72.1399 231.197 72.174C231.23 72.3098 231.222 72.4288 231.171 72.5305C231.137 72.6321 231.12 72.7425 231.12 72.8615C231.137 73.0147 231.171 73.1584 231.222 73.2949C231.273 73.4132 231.257 73.549 231.171 73.7021C231.239 73.872 231.273 74.0245 231.273 74.1609C231.29 74.2793 231.282 74.3896 231.248 74.4919C231.265 74.5428 231.299 74.5849 231.35 74.619C231.401 74.6531 231.435 74.7039 231.452 74.7721C231.469 74.8571 231.435 74.9159 231.35 74.95C231.265 74.9841 231.282 75.0523 231.401 75.154C231.265 75.4255 231.163 75.6382 231.094 75.7906C231.044 75.9264 230.976 76.0622 230.891 76.1979C230.703 76.2153 230.55 76.2748 230.431 76.3765C230.329 76.4614 230.193 76.5296 230.023 76.5804C229.921 76.5463 229.853 76.4955 229.819 76.4273C229.785 76.3597 229.699 76.3256 229.563 76.3256C229.563 76.1391 229.513 75.9859 229.411 75.8669C229.326 75.7311 229.3 75.5445 229.334 75.3065C229.351 75.2048 229.377 75.1453 229.411 75.1286C229.444 75.0945 229.462 75.0604 229.462 75.0263C229.393 74.7721 229.377 74.5682 229.411 74.415C229.444 74.2452 229.402 74.1348 229.283 74.084C229.3 74.0499 229.326 74.0164 229.359 73.9823C229.393 73.9315 229.419 73.8807 229.436 73.8292C229.47 73.7784 229.478 73.7362 229.462 73.7021C229.462 73.6513 229.419 73.6005 229.334 73.549C229.419 73.4647 229.436 73.4052 229.385 73.3711C229.351 73.3203 229.334 73.2521 229.334 73.1671C229.334 73.0655 229.351 72.9719 229.385 72.8869C229.419 72.802 229.436 72.7171 229.436 72.6321C229.453 72.5813 229.444 72.5305 229.411 72.4797C229.393 72.4288 229.385 72.378 229.385 72.3265C229.385 72.2931 229.402 72.2336 229.436 72.1486C229.487 72.0637 229.513 71.9955 229.513 71.9447C229.462 71.8597 229.462 71.7661 229.513 71.6645C229.581 71.5628 229.563 71.4438 229.462 71.308C229.496 71.0873 229.478 70.9429 229.411 70.8747C229.359 70.8071 229.317 70.7222 229.283 70.6205C229.266 70.5523 229.257 70.4761 229.257 70.3912C229.275 70.3062 229.232 70.2554 229.13 70.238C229.147 70.0681 229.147 69.9578 229.13 69.907C229.113 69.8394 229.062 69.7966 228.976 69.7799C228.976 69.6101 228.934 69.4823 228.849 69.3974C228.781 69.2957 228.696 69.1854 228.594 69.0664C228.288 68.948 228.101 68.7353 228.032 68.4297C227.964 68.1241 227.956 67.8439 228.007 67.5891C228.194 67.5042 228.304 67.4453 228.339 67.4112C228.39 67.3771 228.44 67.343 228.492 67.3089C228.73 67.2581 228.891 67.2581 228.976 67.3089C229.079 67.3604 229.24 67.3858 229.462 67.3858C229.563 67.4707 229.657 67.5557 229.742 67.6406C229.844 67.7081 229.963 67.759 230.099 67.7931C230.168 67.9288 230.21 68.0311 230.227 68.0987C230.244 68.1495 230.304 68.1749 230.406 68.1749C230.355 68.2772 230.337 68.3622 230.355 68.4297C230.389 68.4979 230.422 68.5574 230.457 68.6083C230.507 68.6591 230.55 68.7186 230.585 68.7862C230.618 68.8377 230.618 68.9139 230.585 69.0155C230.601 69.0664 230.635 69.1005 230.686 69.1179C230.737 69.1346 230.78 69.16 230.814 69.1941C230.814 69.4656 230.857 69.6442 230.942 69.7291C231.078 69.7458 231.188 69.7204 231.273 69.6522C231.358 69.5673 231.469 69.5338 231.605 69.5505C231.69 69.5164 231.732 69.4315 231.732 69.2957C231.801 69.3131 231.877 69.2957 231.962 69.2449C232.047 69.1941 232.107 69.1513 232.141 69.1179C232.328 69.0837 232.447 69.041 232.498 68.9901C232.566 68.9393 232.643 68.8965 232.728 68.8631C232.898 68.744 232.991 68.6932 233.009 68.7099C233.025 68.7273 233.051 68.7273 233.085 68.7099C233.289 68.6424 233.4 68.5909 233.417 68.5574C233.451 68.5059 233.493 68.4805 233.545 68.4805C233.714 68.4471 233.884 68.4471 234.055 68.4805C234.242 68.5146 234.404 68.4638 234.54 68.3281C234.71 68.413 234.88 68.4384 235.05 68.4043C235.237 68.3535 235.424 68.3622 235.612 68.4297C235.765 68.5487 235.866 68.5996 235.918 68.5829C235.969 68.5655 235.986 68.5909 235.969 68.6591C236.087 68.6083 236.199 68.6083 236.301 68.6591C236.42 68.7099 236.538 68.7273 236.658 68.7099C236.692 68.8457 236.701 68.9393 236.683 68.9901C236.683 69.0242 236.683 69.0751 236.683 69.1433C236.87 69.16 236.989 69.2195 237.04 69.3212C237.109 69.4061 237.202 69.4997 237.321 69.6014C237.287 69.7879 237.338 69.9324 237.474 70.0347C237.44 70.1705 237.44 70.2721 237.474 70.3403C237.509 70.4079 237.551 70.5015 237.602 70.6205C237.551 70.7563 237.551 70.9007 237.602 71.0532C237.653 71.189 237.687 71.3247 237.704 71.4605C237.721 71.5969 237.721 71.7327 237.704 71.8684C237.687 72.0042 237.67 72.1399 237.653 72.2757C237.636 72.378 237.61 72.4884 237.576 72.6067C237.56 72.709 237.576 72.8107 237.627 72.9123C237.61 72.9806 237.568 73.0822 237.5 73.218C237.551 73.4052 237.568 73.6005 237.551 73.8038C237.534 73.991 237.509 74.1863 237.474 74.3896C237.44 74.5936 237.406 74.7976 237.372 75.0009C237.355 75.2048 237.372 75.4088 237.424 75.6121C237.355 75.6803 237.313 75.7739 237.296 75.8923C237.296 76.0113 237.296 76.1391 237.296 76.2748C237.313 76.4106 237.33 76.5463 237.346 76.6821C237.381 76.8178 237.398 76.9282 237.398 77.0131C237.568 77.0813 237.696 77.1148 237.781 77.1148C237.746 77.183 237.763 77.2425 237.832 77.2933C237.9 77.3615 237.933 77.4211 237.933 77.4719C237.917 77.5053 237.891 77.5568 237.857 77.6244C237.823 77.7093 237.823 77.7688 237.857 77.8029H237.959ZM245.564 68.4043C245.495 68.5233 245.428 68.5909 245.359 68.6083C245.292 68.625 245.274 68.7186 245.308 68.8885C245.223 68.9226 245.138 68.9734 245.053 69.0409C244.968 69.0918 244.892 69.1433 244.824 69.1941C244.739 69.1433 244.62 69.1179 244.466 69.1179C244.313 69.1179 244.143 69.1259 243.956 69.1433C243.786 69.16 243.616 69.1854 243.446 69.2195C243.275 69.2362 243.131 69.2449 243.012 69.2449C243.046 69.6355 243.038 70.0347 242.986 70.442C242.953 70.8492 242.953 71.2485 242.986 71.639C242.986 71.6899 242.995 71.7407 243.012 71.7922C243.046 71.843 243.038 71.8851 242.986 71.9192C243.02 72.0042 243.02 72.1058 242.986 72.2249C242.969 72.3265 242.944 72.4201 242.91 72.5051C242.961 72.6067 243.029 72.7003 243.114 72.7853C243.114 72.8702 243.097 73.0147 243.063 73.218C243.046 73.4219 243.02 73.549 242.986 73.6005C242.986 73.668 242.995 73.7784 243.012 73.9315C243.046 74.084 243.08 74.1776 243.114 74.2117C243.097 74.3816 243.097 74.4919 243.114 74.5428C243.131 74.5769 243.156 74.619 243.19 74.6698C243.139 74.7547 243.114 74.8484 243.114 74.95C243.114 75.035 243.114 75.1286 243.114 75.2302C243.131 75.3152 243.139 75.4001 243.139 75.485C243.156 75.57 243.148 75.6382 243.114 75.689C243.199 75.7224 243.233 75.8334 243.216 76.02C243.216 76.1899 243.259 76.3083 243.344 76.3765C243.446 76.4106 243.539 76.4701 243.625 76.555C243.726 76.64 243.82 76.6988 243.905 76.7329C244.041 76.8519 244.118 76.9369 244.134 76.9877C244.169 77.0385 244.177 77.0894 244.16 77.1409C244.16 77.1917 244.152 77.2512 244.134 77.3187C244.118 77.3869 244.126 77.4799 244.16 77.5989C244.075 77.6672 244.007 77.7434 243.956 77.8283C243.905 77.9133 243.837 77.9895 243.752 78.0577C243.565 78.0403 243.429 78.0657 243.344 78.1339C243.259 78.2022 243.174 78.2356 243.089 78.2356C242.969 78.0998 242.875 78.0323 242.808 78.0323C242.757 78.049 242.697 78.0323 242.629 77.9808C242.527 77.9474 242.476 77.9046 242.476 77.8537C242.493 77.8029 242.476 77.7601 242.425 77.7267C242.357 77.6752 242.306 77.6672 242.272 77.7006C242.238 77.7521 242.195 77.7688 242.144 77.7521C242.076 77.6498 242.017 77.5394 241.966 77.4211C241.931 77.302 241.855 77.2171 241.736 77.1663C241.651 77.1322 241.6 77.0813 241.583 77.0131C241.566 76.9623 241.558 76.9115 241.558 76.8606C241.558 76.7924 241.549 76.7329 241.531 76.6821C241.515 76.6313 241.464 76.5972 241.379 76.5804C241.447 76.5122 241.455 76.4527 241.404 76.4019C241.353 76.3511 241.328 76.3083 241.328 76.2748C241.344 76.0367 241.336 75.8923 241.302 75.8415C241.285 75.7739 241.277 75.7057 241.277 75.6382C241.294 75.5532 241.31 75.4937 241.328 75.4596C241.362 75.4088 241.37 75.3319 241.353 75.2302C241.285 75.0263 241.259 74.8992 241.277 74.8484C241.294 74.7802 241.302 74.7126 241.302 74.6444C241.285 74.5769 241.268 74.5173 241.251 74.4665C241.251 74.415 241.251 74.3562 241.251 74.288C241.234 74.084 241.234 73.8807 241.251 73.6767C241.285 73.4728 241.277 73.2695 241.225 73.0655C241.208 72.9465 241.217 72.8194 241.251 72.6836C241.302 72.5472 241.285 72.4288 241.2 72.3265C241.166 72.0891 241.183 71.9279 241.251 71.843C241.336 71.7407 241.336 71.6477 241.251 71.5628C241.285 71.4779 241.285 71.3843 241.251 71.2826C241.234 71.1803 241.234 71.0873 241.251 71.0024C241.251 71.0024 241.243 70.9516 241.225 70.8492C241.225 70.7309 241.225 70.6032 241.225 70.4674C241.225 70.3316 241.217 70.2126 241.2 70.1109C241.2 69.9919 241.2 69.9324 241.2 69.9324C241.234 69.7458 241.234 69.6187 241.2 69.5505C241.166 69.4656 241.192 69.3807 241.277 69.2957C241.225 69.2449 241.166 69.2362 241.098 69.2703C241.047 69.287 241.004 69.2536 240.971 69.1687C240.868 69.2195 240.69 69.2703 240.435 69.3212C240.179 69.372 239.992 69.3974 239.873 69.3974C239.652 69.2957 239.524 69.2616 239.491 69.2957C239.456 69.3299 239.422 69.3466 239.388 69.3466C239.303 69.3298 239.192 69.279 239.056 69.1941C238.937 69.1092 238.861 69.0329 238.827 68.9647C238.81 68.7607 238.793 68.6424 238.776 68.6083C238.759 68.5742 238.741 68.5401 238.725 68.506C238.708 68.4043 238.716 68.3027 238.75 68.2003C238.801 68.0987 238.818 67.9883 238.801 67.8693C238.886 67.8359 238.954 67.7931 239.005 67.7422C239.056 67.6914 239.125 67.6486 239.21 67.6145C239.431 67.6994 239.643 67.7248 239.848 67.6914C240.069 67.6406 240.281 67.5978 240.486 67.5637C240.587 67.6319 240.732 67.666 240.919 67.666C241.107 67.6486 241.243 67.5891 241.328 67.4874C241.328 67.1136 241.353 66.7318 241.404 66.3413C241.319 66.1376 241.251 65.9508 241.2 65.781L241.302 64.7112C241.302 64.4226 241.31 64.1339 241.328 63.8452C241.344 63.5396 241.362 63.2425 241.379 62.9538C241.344 62.9028 241.319 62.8434 241.302 62.7755C241.285 62.6906 241.251 62.6312 241.2 62.5972C241.285 62.5123 241.319 62.3934 241.302 62.2406C241.302 62.0708 241.344 61.935 241.43 61.8331C241.447 61.7482 241.421 61.6973 241.353 61.6803C241.285 61.6633 241.243 61.6293 241.225 61.5784C241.174 61.3407 241.208 61.1539 241.328 61.0181C241.447 60.8823 241.574 60.7464 241.71 60.6105C241.812 60.6105 241.923 60.6105 242.042 60.6105C242.161 60.5936 242.263 60.6275 242.348 60.7125C242.382 60.6785 242.417 60.653 242.451 60.636C242.502 60.6021 242.553 60.5681 242.603 60.5342C242.638 60.5342 242.663 60.5766 242.68 60.6615C242.697 60.7464 242.731 60.8058 242.782 60.8398C242.816 60.8738 242.867 60.9501 242.935 61.069C243.003 61.1709 243.046 61.2473 243.063 61.2982C243.063 61.468 243.071 61.5699 243.089 61.6039C243.105 61.6378 243.105 61.6718 243.089 61.7058C243.089 61.7567 243.071 61.8077 243.038 61.8586C243.003 61.8925 242.986 61.935 242.986 61.986C242.969 62.1218 242.978 62.2576 243.012 62.3934C243.046 62.5123 243.063 62.6397 243.063 62.7755C243.063 62.8604 243.046 62.9368 243.012 63.0047C242.995 63.0557 243.003 63.1406 243.038 63.2595C243.071 63.4971 243.089 63.6415 243.089 63.6924C243.071 63.7434 243.071 63.7943 243.089 63.8452C243.105 63.8962 243.114 63.9471 243.114 63.998C243.114 64.1 243.097 64.1848 243.063 64.2528C243.029 64.3037 243.02 64.3971 243.038 64.5329C243.071 64.6688 243.08 64.7537 243.063 64.7876C243.046 64.8046 243.038 64.8811 243.038 65.0169C243.038 65.0678 243.038 65.1442 243.038 65.2461C243.054 65.348 243.063 65.4583 243.063 65.5772C243.063 65.6961 243.054 65.7979 243.038 65.8828C243.038 65.9678 243.012 66.0187 242.961 66.0357C243.029 66.2564 243.046 66.3922 243.012 66.4432C242.995 66.4941 242.986 66.5535 242.986 66.6215C242.969 66.7743 242.978 66.927 243.012 67.0802C243.063 67.2326 243.105 67.3938 243.139 67.5637C243.225 67.5637 243.301 67.5724 243.369 67.5891C243.437 67.6065 243.505 67.5891 243.573 67.5383C243.862 67.6406 244.084 67.674 244.237 67.6406C244.39 67.5891 244.602 67.547 244.875 67.5129C245.096 67.6994 245.292 67.8526 245.462 67.9716C245.632 68.0733 245.665 68.2177 245.564 68.4043Z" fill="#88CED4"/>
<path d="M147.772 52.1627C147.772 51.3816 147.518 50.9572 147.007 50.8892C146.837 50.8552 146.667 50.8383 146.496 50.8383H144.864L133.023 21.5988H130.318L118.987 50.8383H115.772V52.1627H124.959C124.959 51.4156 124.737 50.9911 124.295 50.8892C124.091 50.8552 123.887 50.8383 123.683 50.8383H121.029L124.806 40.9559H135.268L139.096 50.8383H135.677V52.1627H147.772ZM134.656 39.4787H125.367L130.012 27.4059L134.656 39.4787ZM160.583 50.8892H157.878V19.0518H149.099V20.3253H152.978V47.9347C152.978 49.4289 152.502 50.3289 151.549 50.6345C151.005 50.8043 150.188 50.8892 149.099 50.8892V52.1627H161.808C161.808 51.4496 161.587 51.042 161.144 50.9402C160.974 50.9062 160.787 50.8892 160.583 50.8892ZM172.526 60.5678V50.1251C174.124 51.7552 176.234 52.6042 178.854 52.6721C182.019 52.6721 184.621 51.4835 186.662 49.1063C188.534 46.8989 189.47 44.0973 189.47 40.7012C189.47 36.66 188.313 33.6375 185.999 31.6339C184.57 30.4113 182.835 29.8 180.794 29.8C177.765 29.8 175.417 30.9377 173.75 33.2131C173.206 33.9601 172.781 34.7922 172.475 35.7091L172.219 30.4113H164.207V31.6848H167.626V57.6643C167.626 59.1584 167.167 60.0584 166.248 60.3641C165.772 60.4999 165.091 60.5678 164.207 60.5678V61.8413H177.017C177.017 61.0942 176.796 60.6867 176.353 60.6187C176.183 60.5848 175.979 60.5678 175.741 60.5678H172.526ZM178.701 31.9905C181.695 31.9905 183.43 34.2318 183.907 38.7145C184.008 39.5296 184.06 40.3956 184.06 41.3125C184.06 46.6103 182.75 49.8195 180.13 50.9402C179.517 51.2118 178.871 51.3476 178.191 51.3476C175.945 51.3476 174.329 50.1081 173.342 47.6291C172.763 46.1348 172.475 44.3519 172.475 42.2804C172.475 38.0014 173.512 34.962 175.588 33.1621C176.54 32.381 177.578 31.9905 178.701 31.9905ZM203.097 50.8892H201.055V39.3768C201.055 36.2865 202.076 34.13 204.117 32.9074C204.866 32.4659 205.632 32.2452 206.414 32.2452C208.422 32.2452 209.748 33.264 210.395 35.3016C210.599 36.0487 210.701 36.8468 210.701 37.6958V47.9856C210.701 49.4459 210.395 50.3289 209.782 50.6345C209.374 50.8043 208.711 50.8892 207.792 50.8892V52.1627H219.122C219.122 51.4156 218.901 51.008 218.458 50.9402C218.289 50.9062 218.085 50.8892 217.846 50.8892H215.652V38.0524C215.652 34.1469 214.325 31.6 211.671 30.4113C210.786 30.0038 209.833 29.8 208.813 29.8C206.159 29.8 203.998 30.7679 202.331 32.7036C201.787 33.3829 201.361 34.096 201.055 34.8432V19.0518H192.634V20.3253H196.155V47.9856C196.155 49.5139 195.645 50.4138 194.624 50.6854C194.148 50.8213 193.485 50.8892 192.634 50.8892V52.1627H204.322C204.322 51.4496 204.101 51.042 203.658 50.9402C203.488 50.9062 203.301 50.8892 203.097 50.8892ZM240.098 52.6721C242.48 52.6721 243.944 51.6024 244.488 49.4629C244.658 48.8516 244.76 48.1554 244.794 47.3743L243.467 47.3234C243.229 49.7345 242.582 50.9572 241.527 50.9911C240.711 50.9232 240.286 50.0572 240.252 48.3932V37.6958C240.183 32.4659 237.308 29.834 231.626 29.8C227.509 29.8 224.822 30.717 223.563 32.5508C223.188 33.1281 223.001 33.7055 223.001 34.2828C223.001 35.3695 223.511 36.0657 224.532 36.3713C224.804 36.4393 225.076 36.4732 225.349 36.4732C226.404 36.4732 227.135 35.9129 227.543 34.7922C227.612 34.6224 227.697 34.3677 227.799 34.0281C228.241 32.6697 228.786 31.8037 229.431 31.4301C229.908 31.1924 230.487 31.0735 231.167 31.0735C233.923 31.1415 235.318 32.9244 235.352 36.4223V39.6824C227.186 39.7843 222.678 41.6351 221.827 45.2349C221.725 45.7103 221.674 46.2027 221.674 46.7121C221.674 49.4289 222.848 51.2458 225.196 52.1627C226.08 52.5023 227.05 52.6721 228.105 52.6721C230.69 52.6721 232.766 51.7891 234.331 50.0232C234.842 49.4119 235.233 48.7667 235.505 48.0875C236.016 51.11 237.547 52.6381 240.098 52.6721ZM230.197 50.5836C228.326 50.5836 227.22 49.4799 226.88 47.2725C226.812 46.8649 226.778 46.4235 226.778 45.948C226.778 43.6388 228.003 42.1785 230.453 41.5672C231.712 41.2616 233.344 41.0918 235.352 41.0578V45.4896C234.774 47.8668 233.583 49.4459 231.779 50.227C231.235 50.4647 230.708 50.5836 230.197 50.5836Z" fill="#BBF6F7"/>
<path d="M89.3415 20.6945C84.9903 16.2452 79.1551 13.7173 72.826 13.7173C72.826 13.7173 72.826 13.7173 72.7268 13.7173C66.2002 13.7173 59.772 16.2452 54.5307 20.6945C48.597 15.3352 43.2568 12.7061 38.1143 12.7061C31.0928 12.7061 24.4669 15.5374 19.7201 20.6945C16.1598 24.3348 13.6875 29.1886 12.5997 34.649C12.303 36.3681 13.3908 37.986 14.9732 38.2894C16.5554 38.5927 18.1377 37.5815 18.4344 35.8625C19.2256 31.6154 21.2034 27.7729 23.9725 24.9416C27.7304 20.9979 32.6752 18.7732 38.1143 18.7732C42.07 18.7732 46.817 21.5035 52.2561 26.7617C53.5417 28.0763 55.5197 28.0763 56.7063 26.7617C61.0577 22.3124 66.8924 19.6833 72.6284 19.6833C72.6284 19.6833 72.6284 19.6833 72.7268 19.6833C77.5731 19.6833 81.8251 21.5035 84.9903 24.8405C88.7478 28.8852 90.9234 34.2446 90.9234 39.8062C90.9234 42.233 90.5281 44.5588 89.7368 46.7834H67.6836C66.8924 46.7834 66.1013 47.0868 65.5079 47.6935L56.5086 57.6033L46.1247 33.5368C45.6302 32.5255 44.7402 31.8177 43.6524 31.7165C42.5645 31.6154 41.4767 32.2222 40.8834 33.1322L32.6752 46.8845H13.6875C12.0063 46.8845 10.7207 48.1991 10.7207 49.9181C10.7207 51.6371 12.0063 52.9517 13.6875 52.9517H34.3563C35.3453 52.9517 36.3342 52.4461 36.9276 51.536L43.059 41.3229L52.9484 64.2771C53.344 65.1872 54.1351 65.895 55.1241 65.9961C55.3219 65.9961 55.4208 65.9961 55.6185 65.9961C56.4097 65.9961 57.2008 65.6928 57.7942 65.0861L68.9693 52.9517H86.7699C86.2754 53.5585 85.781 54.2663 85.188 54.7719L54.6296 85.1076L30.4006 61.1424C29.2139 59.929 27.3348 60.0301 26.2471 61.2435C25.0603 62.457 25.1592 64.3782 26.346 65.4906L52.6517 91.4781C53.2451 92.0854 53.9373 92.2873 54.7285 92.2873C55.5197 92.2873 56.2119 91.9837 56.8052 91.4781L89.5391 59.1201C94.3847 54.064 97.154 47.0868 97.154 39.9073C96.9563 32.8289 94.2862 25.9527 89.3415 20.6945Z" fill="url(#paint0_linear)"/>
</g>
<defs>
<filter id="filter0_d" x="5.7207" y="9.70605" width="244.9" height="89.5813" filterUnits="userSpaceOnUse" color-interpolation-filters="sRGB">
<feFlood flood-opacity="0" result="BackgroundImageFix"/>
<feColorMatrix in="SourceAlpha" type="matrix" values="0 0 0 0 0 0 0 0 0 0 0 0 0 0 0 0 0 0 127 0"/>
<feOffset dy="2"/>
<feGaussianBlur stdDeviation="2.5"/>
<feColorMatrix type="matrix" values="0 0 0 0 0 0 0 0 0 0 0 0 0 0 0 0 0 0 0.27 0"/>
<feBlend mode="normal" in2="BackgroundImageFix" result="effect1_dropShadow"/>
<feBlend mode="normal" in="SourceGraphic" in2="effect1_dropShadow" result="shape"/>
</filter>
<linearGradient id="paint0_linear" x1="53.8384" y1="12.7565" x2="53.8384" y2="92.3381" gradientUnits="userSpaceOnUse">
<stop stop-color="#006376"/>
<stop offset="1" stop-color="#C7FFFF"/>
</linearGradient>
</defs>
</svg>
